<?xml version="1.0" encoding="utf-8"?>
<!-- Generator: Adobe Illustrator 16.0.0, SVG Export Plug-In . SVG Version: 6.00 Build 0)  -->
<!DOCTYPE svg PUBLIC "-//W3C//DTD SVG 1.1//EN" "http://www.w3.org/Graphics/SVG/1.1/DTD/svg11.dtd">
<svg version="1.1" id="Layer_1" xmlns="http://www.w3.org/2000/svg" xmlns:xlink="http://www.w3.org/1999/xlink" x="0px" y="0px"
	 width="52px" height="50px" viewBox="0 0 52 50" enable-background="new 0 0 52 50" xml:space="preserve">
<path fill="#603913" d="M-26.809-271.705V0.144c0,14.843,12.033,26.876,26.875,26.876S26.941,14.987,26.941,0.144v-271.849H-26.809z
	"/>
<path fill="#006838" d="M206.103-298.394c0-23.166-18.516-41.994-41.553-42.525c3.632-6.266,5.721-13.537,5.721-21.301
	c0-23.5-19.051-42.551-42.551-42.551c-3.526,0-6.949,0.437-10.226,1.245c2.251-5.187,3.506-10.907,3.506-16.921
	c0-23.5-19.051-42.551-42.551-42.551c-13.386,0-25.32,6.186-33.12,15.849c-5.229-17.581-21.504-30.405-40.782-30.405
	c-10.82,0-20.69,4.045-28.199,10.697c-7.079-13.668-21.342-23.015-37.797-23.015c-23.5,0-42.551,19.051-42.551,42.551
	c0,4.301,0.644,8.451,1.831,12.364c-0.607-0.026-1.217-0.046-1.831-0.046c-23.5,0-42.551,19.05-42.551,42.551
	c0,5.813,1.169,11.351,3.279,16.397c-17.452,5.308-30.154,21.523-30.154,40.71c0,13.729,6.509,25.932,16.603,33.712
	c-0.603,2.852-0.925,5.807-0.925,8.838c0,6.621,1.513,12.888,4.21,18.476c-2.698,5.588-4.21,11.855-4.21,18.476
	c0,23.5,19.05,42.551,42.551,42.551c3.891,0,7.655-0.532,11.235-1.51c-0.018,0.502-0.038,1.003-0.038,1.51
	c0,23.5,19.051,42.551,42.551,42.551c17.445,0,32.43-10.502,38.998-25.525c7.346,6.037,16.748,9.663,26.998,9.663
	c5.821,0,11.368-1.172,16.422-3.288c3.708,19.719,21.009,34.642,41.806,34.642c15.217,0,28.561-7.993,36.082-20.005
	c21.968-0.696,39.729-18.034,41.088-39.828c17.541-5.254,30.327-21.51,30.327-40.76c0-0.178-0.011-0.353-0.014-0.531
	C190.57-259.59,206.103-277.176,206.103-298.394z"/>
<path fill="#006838" d="M-643.163-31.422c10.691,20.551,35.807,28.708,56.489,18.548c-0.33,7.235,1.173,14.649,4.756,21.537
	c10.846,20.848,36.538,28.956,57.386,18.11c3.128-1.627,5.963-3.595,8.497-5.824c0.397,5.641,1.923,11.294,4.699,16.629
	c10.846,20.848,36.539,28.957,57.386,18.111c11.875-6.178,19.607-17.174,22.067-29.346c12.752,13.184,33.109,17.049,50.212,8.152
	c9.599-4.994,16.488-13.138,20.08-22.504c12.588,8.859,29.555,10.568,44.153,2.974c20.848-10.846,28.957-36.539,18.111-57.387
	c-1.985-3.816-4.472-7.2-7.331-10.124c0.551-0.258,1.101-0.521,1.645-0.804c20.848-10.846,28.957-36.539,18.111-57.386
	c-2.682-5.157-6.275-9.53-10.476-13.034c13.032-12.763,16.817-33.011,7.962-50.032c-6.336-12.18-17.743-20.001-30.288-22.245
	c-0.781-2.809-1.859-5.579-3.258-8.268c-3.056-5.873-7.29-10.735-12.262-14.447c-0.186-6.202-1.736-12.46-4.792-18.334
	c-10.846-20.848-36.538-28.957-57.387-18.111c-3.452,1.796-6.545,4.005-9.27,6.524c-0.216-0.453-0.429-0.907-0.663-1.357
	c-10.846-20.848-36.539-28.956-57.386-18.11c-15.476,8.051-23.923,24.283-22.816,40.642c-9.303-1.965-19.317-0.843-28.411,3.888
	c-5.164,2.687-9.544,6.286-13.051,10.496c-12.39-15.782-34.625-21.036-53.075-11.438c-13.5,7.022-21.648,20.272-22.777,34.399
	c-19.167,10.756-26.922,34.334-18.069,54.295c-13.137,12.756-16.977,33.079-8.093,50.156c0.082,0.158,0.172,0.308,0.257,0.464
	C-647.292-73.015-652.955-50.246-643.163-31.422z"/>
</svg>
