<?xml version="1.0" encoding="utf-8"?>
<!-- Generator: Adobe Illustrator 16.0.0, SVG Export Plug-In . SVG Version: 6.00 Build 0)  -->
<!DOCTYPE svg PUBLIC "-//W3C//DTD SVG 1.1//EN" "http://www.w3.org/Graphics/SVG/1.1/DTD/svg11.dtd">
<svg version="1.1" id="Layer_1" xmlns="http://www.w3.org/2000/svg" xmlns:xlink="http://www.w3.org/1999/xlink" x="0px" y="0px"
	 width="52px" height="50px" viewBox="0 0 52 50" enable-background="new 0 0 52 50" xml:space="preserve">
<path fill="#603913" d="M-26.809-271.705V0.144c0,14.843,12.033,26.876,26.875,26.876S26.941,14.987,26.941,0.144v-271.849H-26.809z
	"/>
<path fill="#006838" d="M206.103-298.394c0-23.166-18.516-41.994-41.553-42.525c3.632-6.266,5.721-13.537,5.721-21.301
	c0-23.5-19.051-42.551-42.551-42.551c-3.526,0-6.949,0.437-10.226,1.245c2.251-5.187,3.506-10.907,3.506-16.921
	c0-23.5-19.051-42.551-42.551-42.551c-13.386,0-25.32,6.186-33.12,15.849c-5.229-17.581-21.504-30.405-40.782-30.405
	c-10.82,0-20.69,4.045-28.199,10.697c-7.079-13.668-21.342-23.015-37.797-23.015c-23.5,0-42.551,19.051-42.551,42.551
	c0,4.301,0.644,8.451,1.831,12.364c-0.607-0.026-1.217-0.046-1.831-0.046c-23.5,0-42.551,19.05-42.551,42.551
	c0,5.813,1.169,11.351,3.279,16.397c-17.452,5.308-30.154,21.523-30.154,40.71c0,13.729,6.509,25.932,16.603,33.712
	c-0.603,2.852-0.925,5.807-0.925,8.838c0,6.621,1.513,12.888,4.21,18.476c-2.698,5.588-4.21,11.855-4.21,18.476
	c0,23.5,19.05,42.551,42.551,42.551c3.891,0,7.655-0.532,11.235-1.51c-0.018,0.502-0.038,1.003-0.038,1.51
	c0,23.5,19.051,42.551,42.551,42.551c17.445,0,32.43-10.502,38.998-25.525c7.346,6.037,16.748,9.663,26.998,9.663
	c5.821,0,11.368-1.172,16.422-3.288c3.708,19.719,21.009,34.642,41.806,34.642c15.217,0,28.561-7.993,36.082-20.005
	c21.968-0.696,39.729-18.034,41.088-39.828c17.541-5.254,30.327-21.51,30.327-40.76c0-0.178-0.011-0.353-0.014-0.531
	C190.57-259.59,206.103-277.176,206.103-298.394z"/>
</svg>
