<?xml version="1.0" encoding="utf-8"?>
<!-- Generator: Adobe Illustrator 16.0.0, SVG Export Plug-In . SVG Version: 6.00 Build 0)  -->
<!DOCTYPE svg PUBLIC "-//W3C//DTD SVG 1.1//EN" "http://www.w3.org/Graphics/SVG/1.1/DTD/svg11.dtd">
<svg version="1.1" id="Layer_1" xmlns="http://www.w3.org/2000/svg" xmlns:xlink="http://www.w3.org/1999/xlink" x="0px" y="0px"
	 width="100px" height="150px" viewBox="0 0 100 150" enable-background="new 0 0 100 150" xml:space="preserve">
<g>
	<path fill="#303030" d="M56.043,131.094c0.379,0.522,1.025,1.193,2.125,0.64c1.1-0.551,1.436-2.295,1.854-4.129
		c0.418-1.839,0.707-4.377,0.92-5.215c0.214-0.835,0.445-2.862-0.16-2.818c-0.606,0.044-5.213,0.126-5.326,1.22
		C55.346,121.888,56.043,131.094,56.043,131.094z"/>
	<path fill="#303030" d="M39.391,130.501c-0.678,0.312-1.605,0.002-1.967-1.336c-0.36-1.34-0.558-3.279-0.979-4.548
		c-0.421-1.266-0.248-1.455-0.537-2.618c-0.287-1.163,0.961-2.561,0.961-2.561s4.184,0.545,4.455,0.709
		c0.271,0.166-0.031,3.694-0.301,5.745s0.432,2.646-0.376,3.75C39.842,130.747,39.391,130.501,39.391,130.501z"/>
	<path fill="#C9A896" d="M37.051,48.292c0,0-5.003,0.765-6.205,4.098c-1.203,3.331-1.203,3.331-1.203,3.331
		s-2.042,5.375-2.189,7.378c-0.146,2.003-0.736,9.946,0.139,11.563s3.205,2.795,3.855,2.011c0.651-0.783,2.398-3.723,2.921-5.233
		c0.523-1.511,1.731-3.212,1.796-5.119c0.066-1.908,1.918-11.714,1.682-13.786C37.609,50.462,37.051,48.292,37.051,48.292z"/>
	<path fill="#C9A896" d="M27.642,69.435c0,0-0.807,1.133-1.253,3.97c-0.447,2.836,0.474,9.834,0.939,10.362
		c0.465,0.529,1.307,1.566,1.785,0.815c0.48-0.753,1.907-4.716,2.317-5.155c0.411-0.439,1.409-2.945,1.834-3.786
		c0.426-0.84,1.22-3.695,0.709-5.025C33.463,69.283,27.642,69.435,27.642,69.435z"/>
	<path fill="#C9A896" d="M27.659,80.857c0,0-1.095,2.31-0.954,2.944c0.14,0.638,0.452,7.652,2.383,7.924
		c1.93,0.27,2.054,0.937,2.577-0.562c0.524-1.5,0.126-2.383-0.248-4.356c-0.374-1.973-1.708-5.536-1.708-5.536L27.659,80.857z"/>
	<path fill="#C9A896" d="M62.26,48.148c0,0,4.169-1.96,6.058,2.193c1.89,4.153,4.696,12.156,4.378,15.754
		c-0.316,3.597,0.33,5.776-0.572,8.255c-0.902,2.48-1.385,3.412-2.689,2.537c-1.306-0.879-3.516-4.561-4.195-5.789
		c-0.68-1.23-1.241-1.922-1.388-4.5c-0.147-2.576-2.188-9.351-1.668-12.462C62.7,51.025,62.26,48.148,62.26,48.148z"/>
	<path fill="#C9A896" d="M65.187,67.128c0,0,1.372,11.146,1.775,12.481c0.403,1.34,1.47,6.265,2.581,5.93
		c1.112-0.336,2.038-2.383,2.721-4.144c0.684-1.763,0.859-7.394,0.891-8.574c0.033-1.18,0.244-2.054-1.422-3.795
		C70.066,67.286,65.187,67.128,65.187,67.128z"/>
	<path fill="#C9A896" d="M71.58,81.614c0,0-0.217,3.82-0.537,4.291c-0.321,0.472,0.036,2.537-0.697,3.984
		c-0.734,1.447-1.105,2.556-2.151,2.526c-1.046-0.032-0.483,0.666-1.593-0.45c-1.107-1.119-1.584-1.872-1.372-2.718
		c0.214-0.846,3.009-5.448,2.958-6.985C68.137,80.723,71.58,81.614,71.58,81.614z"/>
	<path fill="#ECCFC1" d="M44.527,39.097c0,0,0.566,5.296,0.025,6.471c-0.543,1.175-0.543,1.175-0.543,1.175l-4.662,1.419
		c0,0-5.006-0.052-5.498,1.972c-0.494,2.021-0.474,9.999-0.233,11.163c0.241,1.166,3.839,10.865,3.776,12.806
		c-0.064,1.942-4.766,6.472-5.105,9.665c-0.34,3.192,6.746,9.953,16.449,9.217c9.702-0.736,17.736-3.287,17.408-9.023
		c-0.326-5.734-4.071-7.333-4.671-10.2c-0.599-2.867,2.968-4.431,3.612-8.366c0.646-3.935,4.113-8.756,2.795-12.035
		s-3.289-5.796-5.105-5.601c-1.816,0.193-5.674-0.313-6.593-1.166c-0.919-0.854-0.492-7.111-0.492-7.111s-2.259-2.977-4.493-2.486
		S44.527,39.097,44.527,39.097z"/>
	<path fill="#ECCFC1" d="M60.709,29.856c0,0,1.258,2.102,0.217,3.772c-1.043,1.671-2.619,2.925-2.619,2.925L60.709,29.856z"/>
	<path d="M52.518,41.815c0,0,0.166,2.912,1.206,2.842c1.039-0.069,2.504-1.838,2.504-1.838s-0.731,2.419-1.669,2.761
		s-2.735-0.666-3.482-1.563c-0.747-0.898-0.957-1.521-1.422-2.038c-0.464-0.519-1.837-0.168-3.633-1.153s-1.352,0.712-2.461-1.945
		c-1.107-2.656-0.627-1.867-2.266-3.133c-1.639-1.268-2.305-2.255-3.279-4.089c-0.974-1.834-1.834-4.675-1.645-5.951
		c0.189-1.277,1.688-0.928,3.039-3.181c1.35-2.252,0.418-2.652,4.584-4.703s3.782-2.664,7.955-2.721
		c4.174-0.058,4.297-0.97,6.617,0.075c2.322,1.047,3.24,0.36,4.127,3.664c0.883,3.304,1.607,3.807,0.405,7.139
		s-2.599,4.771-2.985,7.15c-0.387,2.38,0.125,2.169-1.145,4.327s0.922,3.936-1.33,4.155c-2.25,0.219-2.566,0.781-3.443,0.649
		C53.318,42.132,52.518,41.815,52.518,41.815z"/>
	<path d="M57.139,16.081c0,0,1.612-2.264,0.769-3.305c-0.843-1.04,0.065-1.907-3.267-2.352c-3.33-0.444-4.581-1.008-5.938-0.387
		c-1.357,0.622-4.857,0.277-6.723,1.109c-1.867,0.831-3.264-0.749-4.025,2.663S37.48,17.509,39,19.921s2.721,3.472,3.558,2.88
		S57.139,16.081,57.139,16.081z"/>
	<path d="M37.947,18.012c-0.059,0.522-1.602,2.062-1.748,4.245c-0.147,2.185,0.47,5.19,1.363,6.475
		c0.896,1.284,6.229-0.659,6.313-1.022C43.961,27.345,37.947,18.012,37.947,18.012z"/>
	<path d="M46.709,11.685c0.505-0.301,3.508-2.557,3.508-2.557l4.746-0.683c0,0,2.409-0.482,2.464-1.06
		c0.055-0.576-0.089-1.565-0.089-1.565s0.734,1.228,0.482,1.876c-0.252,0.649-0.915,1.23-2.195,1.667
		c-1.281,0.436-2.92,0.389-3.297,0.798c-0.375,0.408-0.389,1.693-0.389,1.693L46.709,11.685z"/>
	<path d="M50.504,11.105l5.59-1.159c0,0,3.881-0.016,3.943-0.744c0.061-0.729-0.094-1.628-0.094-1.628s0.963,1.347,0.573,2.118
		c-0.392,0.773-2.55,1.948-3.2,1.856c-0.65-0.093-2.323,0.466-2.323,0.466"/>
	<path fill="#3F403F" d="M32.459,82.948c0,0-1.126,7.317-0.259,11.661c0.866,4.344,3.796,16.052,5.18,17.423
		c1.384,1.372,3.001,2.266,4.333,1.197c1.33-1.066,4.043-0.808,4.822-3.915c0.78-3.106,2.479-8.415,2.461-13.289
		c-0.016-4.872-0.639-5.107-1.941-6.575c-1.302-1.467-9.604-5.162-9.992-5.865C36.674,82.881,33.379,81.545,32.459,82.948z"/>
	<path fill="#3F403F" d="M45.018,110.169c0,0-0.305,3.803-0.891,5.74c-0.584,1.938-2.127,4.735-2.127,4.735s-1.061,4.979-1.074,6.24
		c-0.016,1.265-0.803,2.723-1.506,2.601c-0.703-0.12-1.605-3.738-1.85-4.973c-0.244-1.237-1.781-3.957-1.903-6.761
		s0.823-9.114,1.421-9.329C37.684,108.206,45.018,110.169,45.018,110.169z"/>
	<path fill="#3F403F" d="M49.617,90.138c0,0-1.097,6.813-1.02,8.382c0.078,1.567,1.418,10.8,2.215,12.566
		c0.797,1.765,4.041,3.708,5.172,3.715c1.133,0.004,4.498-2.001,4.491-3.633s0.365-2.76,0.634-4.125
		c0.271-1.367,3.156-5.797,3.488-7.579c0.329-1.785,2.555-13.954,1.555-15.037c-1-1.086-7.046,0.188-8.982,1.828
		C55.232,87.897,49.813,88.888,49.617,90.138z"/>
	<path fill="#3F403F" d="M51.066,109.431c0,0,0.951,7.368,1.959,9.087c1.006,1.721,1.778,3.05,1.846,4.22
		c0.037,0.649,0.314,2.692,0.703,4.364c0.31,1.336,0.691,2.438,1.075,2.417c0.868-0.051,2.29-1.039,2.489-2.137
		c0.199-1.099,0.311-3.722,0.763-4.933c0.452-1.21,1.468-1.737,1.292-4.801c-0.175-3.066-0.595-5.854-1.182-6.998
		c-0.588-1.145-2.117-3.523-4.235-3.305C53.658,107.569,51.066,109.431,51.066,109.431z"/>
	<path fill="#C9A896" d="M36.652,96.21c0,0,6.16,2.754,9.842,0.175c3.682-2.581,2.352-4.045,2.352-4.045s-0.777,2.503-2.915,3.341
		C40.435,97.828,36.652,96.21,36.652,96.21z"/>
	<path fill="#C9A896" d="M49.624,84.137c0,0-1.398,8.048-1.047,8.857c0.351,0.814,1.35,4.089,6.571,3.338
		c5.223-0.753,6.455-1.981,6.455-1.981s-4.985,1.401-6.416,1.323c-1.43-0.078-5.139,0.031-5.773-3.004
		C48.779,89.637,49.624,84.137,49.624,84.137z"/>
	<path fill="#ECCFC1" d="M34.986,50.248c0,0-4.154,6.805-4.73,10.263c-0.576,3.457-2.826,9.796-1.193,10.95
		c1.631,1.153,6.563-2.392,7.127-6.232C36.755,61.39,34.986,50.248,34.986,50.248z"/>
	<path fill="#ECCFC1" d="M64.274,64.896c0,0,0.066,0.205,0.188,0.534c0.568,1.543,2.387,5.847,4.593,4.83
		c2.677-1.233,2.868-2.44,2.86-4.119c-0.008-1.681-1.408-13.022-5.533-15.507c-4.123-2.485-4.711,9.73-3.92,11.437"/>
	<path fill="#BF2026" d="M39.883,49.247c0,0,7.702,1.781,10.156,0.848c2.453-0.935,7.463-2.887,7.463-2.887v-0.263
		c0,0,2.199,0.478,3.285,0.521c1.086,0.043,4.345-0.125,5.299,0.22c0.957,0.346,1.781,1.147,2.564,2.679
		c0.781,1.531,2.885,7.42,3.266,8.81c0.381,1.388,1.235,5.231,1.265,6.795s0.159,4.301,0.289,5.409
		c0.132,1.106-0.39,9.909-0.521,10.753c-0.13,0.844,1.044,4.847,1.044,4.847s-4.365,0.436-5.278,0.17
		c-0.913-0.265-2.315-0.667-2.315-0.667s0.508-2.979,0.012-4.35c-0.498-1.371-1.881-8.563-1.867-10.241
		c0.012-1.677,0.254-2.271-0.455-3.314S39.656,57.495,39.656,57.302C39.656,57.109,39.883,49.247,39.883,49.247z"/>
	<path fill="#BF2026" d="M64.088,68.576c0,0-0.016,0.021-0.043,0.057c-0.326,0.415-2.322,2.989-2.439,4.012
		c-0.132,1.115,2.48,4.919,2.938,5.508c0.456,0.589,1.832,3.892,2.023,6.964c0.193,3.071-0.257,10.69,0,11.799
		c0.259,1.11,1.611,4.564,1.611,4.564s-6.01,4.127-9.871,4.213c-3.86,0.087-6.029-0.629-9.311-0.824
		c-3.281-0.197-7.317,1.344-10.349,1.391c-3.03,0.042-8.442-2.825-8.442-2.825s1.711-2.995,0.852-6.929
		c-0.484-2.213,15.246-20.5,15.246-20.5"/>
	<path fill="#4891CE" d="M39.348,48.161c0,0,3.34,7.472,8.502,10.686c5.163,3.214,16.658,8.433,16.658,8.433
		s0.195,0.545-0.352,1.484c-0.547,0.943-9.146,4.679-11.23,7.11s-1.96,13.396-1.859,16.232c0.102,2.84,0.879,6.83,0.879,6.83
		s-8.906,1.321-11.608,1.203c-2.7-0.116-9.449-1.872-9.868-2.122c-0.417-0.251,0.74-4.411,0.565-5.417
		c-0.173-1.003-0.829-3.87-0.829-3.87s-3.576-1.354-3.937-1.979c-0.36-0.627-0.335-11.79,0-15.068
		c0.335-3.279,0.423-16.03,4.506-20.341c4.083-4.31,7.644-4.136,8.599-4.049c0.956,0.087,1.062,0.537,1.062,0.537L39.348,48.161z"/>
</g>
</svg>
