<?xml version="1.0" encoding="utf-8"?>
<!-- Generator: Adobe Illustrator 16.0.0, SVG Export Plug-In . SVG Version: 6.00 Build 0)  -->
<!DOCTYPE svg PUBLIC "-//W3C//DTD SVG 1.1//EN" "http://www.w3.org/Graphics/SVG/1.1/DTD/svg11.dtd">
<svg version="1.1" id="Layer_1" xmlns="http://www.w3.org/2000/svg" xmlns:xlink="http://www.w3.org/1999/xlink" x="0px" y="0px"
	 width="100px" height="150px" viewBox="0 0 100 150" enable-background="new 0 0 100 150" xml:space="preserve">
<g>
	<path fill="#C9A896" d="M54.868,84.107"/>
	<path fill="#303030" d="M66.669,89.598c0,0-2.172,12.285-3.301,13.873c-1.131,1.592-4.865,3.502-5.646,3.066
		c-0.783-0.434-4.098-5.578-4.178-7.393s-4.209-8.418-1.383-10.762S66.669,89.598,66.669,89.598z"/>
	<path fill="#303030" d="M63.282,100.545c0,0,2.865,3.859,2.432,6.057c-0.436,2.195-1.479,7.131-1.564,7.705
		c-0.043,0.285,0.229,0.992,0.422,1.641c0.193,0.646,0.307,1.234-0.051,1.277c-0.717,0.088-5.063-2.018-5.063-2.918
		c0-0.904-2.346-10.111-2.346-10.111L63.282,100.545z"/>
	<path fill="#303030" d="M64.235,118.787c-1.215,0.521-2.865-1.326-4.082-2.357c-1.217-1.029-6.686-5.178-6.609-5.895
		c0.076-0.719,2.266-2.031,3.047-1.973c0.781,0.063,3.303,0.324,3.303,0.324s6.08,7.643,5.211,8.771S64.235,118.787,64.235,118.787z
		"/>
	<path fill="#9A1D26" d="M60.015,43.348c0,0,5.004-2.918,7.262,1.947c2.26,4.864,3.65,8.08,2.605,11.206
		c-1.041,3.127-2.17,5.212-2.258,5.82c-0.088,0.608,0.348,1.478-0.26,2.347c-0.609,0.868-0.869,1.059-0.869,1.059
		s-2.346,5.022-3.127,6.239c-0.783,1.216-5.646-3.094-5.646-3.094s1.824-4.465,1.996-4.813c0.176-0.346,3.914-5.56,4.262-6.081
		c0.344-0.521-0.873-4.864-1.221-6.167C62.411,50.507,60.015,43.348,60.015,43.348z"/>
	<path fill="#ECCFC1" d="M46.253,40.669c0,0-1.889,0.456-2.996-0.391c-1.107-0.848-1.498-3.365-1.824-3.963
		c-0.326-0.599-1.498-2.357-1.238-3.921c0.262-1.564,0.586-1.352,0.328-2.142c-0.264-0.79-0.916-3.136-0.85-4.177
		c0.064-1.042-0.391-5.473,1.955-7.297c2.346-1.824,7.297-4.057,12.967-2.256c5.668,1.8,7.361,6.755,6.904,11.803
		c-0.453,5.048-4.756,9.869-6.84,10.39c-2.084,0.521-5.539,0-5.539,0L46.253,40.669z"/>
	<path fill="#ECCFC1" d="M44.952,39.691c0,0,1.693,2.541,1.953,4.3s0,4.886,0,4.886s3.063,0.261,4.822-0.521
		c1.758-0.781,6.711-4.495,6.711-4.495s-2.24,1.04-1.738-6.419c0.498-7.458-7.709,0.165-8.623,0.49
		C47.165,38.258,44.952,39.691,44.952,39.691z"/>
	<path d="M40.001,25.423c0.127-1.239,0.648,5.994,0.846,7.231c0.195,1.238,0.65,1.759,1.107,1.89s1.758-1.043,2.02-1.303
		c0.262-0.261,1.5,1.172,1.629,2.085c0.129,0.912,0.521,2.345,0.521,2.345s2.215,1.694,2.736,1.955
		c0.521,0.26,3.387,1.166,4.236,1.166c0.846,0,1.693,0,3.576,0c2.018,0,3.852-2.013,5.219-3.511c1.367-1.499,4.43-6.776,4.168-9.513
		c-0.26-2.736-0.26-7.861-5.014-11.912c-4.758-4.051-8.992-6.332-11.729-5.745c-2.738,0.586-9.838,3.127-10.035,5.147
		c-0.195,2.019-1.758,5.473-1.369,6.971C38.306,23.729,40.001,25.423,40.001,25.423z"/>
	<path d="M63.194,24.771c0,0,4.795-1.783,5.602-3.322c0.861-1.64,2.412-2.542,1.305-4.691c-1.107-2.15-1.236-2.476-3.291-3.909
		c-2.051-1.434-3.93-1.694-5.24-2.541c-1.307-0.847-2.938-3.063-3.459-3.453c-0.52-0.391-4.932,0.782-6.146-0.391
		c-1.215-1.173-0.563-1.499-0.563-1.499s-0.807,1.759-0.176,2.215c0.631,0.456,3.434,1.433,4.344,1.367
		c0.914-0.064,1.824-0.129,2.152,1.174c0.326,1.303,0.717,1.889,0.717,1.889s-3.324,0.848-2.543,2.476
		c0.783,1.629,1.695,7.558,3.584,8.861C61.37,24.25,63.194,24.771,63.194,24.771z"/>
	<path d="M59.155,10.763c0,0-3.779-0.313-4.496-0.743c-0.717-0.43-4.236-1.081-4.494-2.059c-0.264-0.978,0-1.042,0-1.042
		s-0.914,1.694-0.783,1.922c0.131,0.229,2.215,0.829,3.127,1.179c0.912,0.352,1.889,0.157,2.41,0.743
		c0.521,0.587-0.658,1.498-0.658,1.498l3.59,2.021c0,0,1.238-0.587,1.305-0.913C59.22,13.043,59.155,10.763,59.155,10.763z"/>
	<path d="M48.272,37.932c0,0,0.328,2.802-0.52,2.476c-0.848-0.326-1.234-0.852-1.303-1.224c-0.07-0.373-0.457,1.209,0.391,1.608
		c0.846,0.398,1.889,2.027,2.932,0.464c1.041-1.564,2.191-2.998,2.191-2.998L48.272,37.932z"/>
	<path d="M39.153,44.123"/>
	<path fill="#ECCFC1" d="M53.985,44.828c0,0,6.775-2.053,9.035-1.705c2.258,0.346,6.34,9.208,5.559,12.335
		c-0.781,3.129-3.213,7.819-3.561,8.6c-0.348,0.782-2.434,3.736-1.912,5.995c0.521,2.26,3.301,2.694,3.908,7.037
		c0.609,4.344,0.783,9.383-6.254,12.508c-7.035,3.129-15.551,5.82-17.547,4.863c-1.998-0.953-5.109-2.604-4.779-5.816
		c0.33-3.215,0.002-10.426,0.719-12.943c1.105-3.912-2.889-11.643,1.803-22.154c0.834-1.872,5.131-4.391,5.344-4.628
		c0.215-0.237,3.865-2.148,3.865-2.148L53.985,44.828z"/>
	<path fill="#9A1D26" d="M41.128,55.458c0,0-3.561,2.519-4.344,2.954c-0.781,0.435-3.996,3.041-3.996,6.95s4.17,7.471,9.035,4.083
		C46.687,66.057,41.128,55.458,41.128,55.458z"/>
	<path fill="#BF2026" d="M42.343,55.458c0,0-3.758,2.519-4.582,2.954c-0.826,0.435-4.219,3.041-4.219,6.95s4.4,7.471,9.535,4.083
		C48.212,66.057,42.343,55.458,42.343,55.458z"/>
	<path fill="#ECCFC1" d="M66.235,76.307c0,0,4.453,8.602,2.441,13.291c-2.008,4.691-5.744,6.344-9.914,5.475
		c-4.168-0.869-5.916-3.42-5.219-6.689C54.243,85.113,66.235,76.307,66.235,76.307z"/>
	<path fill="#C9A896" d="M60.091,85.799c0,0,3.277,7.887,0.932,11.145c-2.346,3.256-5.561,5.764-7.037,6.266
		s-2.172,0.584-2.172,0.584s-5.82,0.666-8.861-2.592c-3.039-3.254-5.039-8.938-3.689-13.195
		C40.606,83.746,60.091,85.799,60.091,85.799z"/>
	<path fill="#ECCFC1" d="M59.923,85.242c0,0,2.777,8.6,0.432,11.99c-2.344,3.389-5.559,5.992-7.035,6.514
		c-1.477,0.52-2.174,0.611-2.174,0.611s-5.816,0.691-8.859-2.695c-3.039-3.389-5.037-9.297-3.693-13.727
		C39.94,83.502,59.923,85.242,59.923,85.242z"/>
	<path fill="#3F403F" d="M57.722,98.342c0,0-2.086,14.537-3.736,16.449s-3.213,1.811-4.344,1.383
		c-1.129-0.428-3.475-2.686-5.211-6.943c-1.738-4.254-4.604-7.035-4.822-9.727c-0.217-2.693-1.26-8.279-0.346-8.744
		c0.91-0.467,10.467-0.553,12.639,2.4C54.073,96.115,57.722,98.342,57.722,98.342z"/>
	<path fill="#3F403F" d="M54.595,111.057c0,0,1.041,7.037,0.693,9.035c-0.348,1.996-1.391,4.254-1.391,5.385
		c0,0.43,0.102,1.086,0.189,1.771c0.057,0.459,0.107,0.93,0.119,1.357c0.016,0.613-0.055,1.135-0.309,1.389
		c-0.693,0.695-2.951,1.217-3.732,0c-0.783-1.217-0.957-3.65-1.479-5.299c-0.521-1.65-1.824-4.865-1.824-6.34
		c0-1.479-1.043-5.908-0.521-7.299s3.389-3.129,5.561-2.26S54.595,111.057,54.595,111.057z"/>
	<path fill="#3F403F" d="M53.544,127.908c0,0,1.658,3.215,1.051,3.736c-0.609,0.521-1.391,1.477-2.434,1.041
		c-1.043-0.434-2.52-1.129-3.041-1.215c-0.52-0.086-4.951-0.955-5.473-1.824c-0.52-0.869-2.26-2.781-1.998-4.43
		c0.26-1.652,1.129-1.146,1.129-1.146s-0.521-0.938-0.086-1.285c0.436-0.35,1.129-0.955,2.26,0c1.127,0.955,4.516,3.213,5.213,3.213
		C50.858,125.998,53.544,127.908,53.544,127.908z"/>
	<path fill="#9A1D26" d="M43.679,54.763c0,0-4.389-1.823-5.088,0c-0.699,1.824-2.688,15.637-2.416,19.373
		c0.271,3.735,1.58,5.995,3.188,5.733c1.605-0.26,6.129-3.736,6.67-6.342c0.543-2.606,0.775-6.428,0.775-6.428
		s1.305-3.937-0.775-6.368C43.952,58.298,43.679,54.763,43.679,54.763z"/>
	<path fill="#C9A896" d="M44.952,73.356c0,0-0.988,7.919-1.438,8.996c-0.447,1.082-1.617,4.729-2.604,6.203
		c-0.986,1.479-2.783,3.475-3.322,4.605c-0.537,1.129-3.32,0.98-3.32-0.424c0-1.4,0.717-4.006,0.539-5.568
		c-0.18-1.564-0.449-3.389-0.092-5.389c0.359-1.998,2.156-7.296,2.963-8.946c0.807-1.651,2.828-2.344,4.602-1.389
		C44.054,72.398,44.952,73.356,44.952,73.356z"/>
	<path fill="#BF2026" d="M43.337,52.417c0,0-3.857,0.522-4.498,2.346C38.2,56.587,36.378,70.4,36.626,74.136
		c0.248,3.735,1.451,5.995,2.92,5.733c1.471-0.26,5.611-3.736,6.109-6.342c0.498-2.606,0.707-6.428,0.707-6.428
		s2.439-9.208,0.535-11.641C44.993,53.027,43.337,52.417,43.337,52.417z"/>
	<path fill="#ECCFC1" d="M44.431,73.356c0,0-0.906,7.919-1.32,8.996c-0.412,1.082-1.484,4.729-2.391,6.203
		c-0.906,1.479-2.557,3.475-3.053,4.605c-0.494,1.129-3.049,0.98-3.049-0.424c0-1.4,0.66-4.006,0.494-5.568
		c-0.164-1.564-0.41-3.389-0.082-5.389c0.328-1.998,1.977-7.296,2.719-8.946c0.744-1.651,2.6-2.344,4.227-1.389
		C43.606,72.398,44.431,73.356,44.431,73.356z"/>
	<path fill="#ECCFC1" d="M38.306,90.381c0,0,0.127,2.715,0,3.527c-0.131,0.816-1.086,1.338-0.826,2.119
		c0.26,0.783,1.783,2.314,1.783,2.314l-1.436,2.203c0,0-1.91-0.193-2.52-1.4c-0.605-1.205-1.738-3.551-1.824-3.682
		c-0.086-0.133,1.824-5.865,1.824-5.865L38.306,90.381z"/>
	<path fill="#BF2026" d="M63.021,43.126c0,0,1.459-0.288,2.322,0.334c0.865,0.622,4.584,8.375,4.383,10.381
		c-0.197,2.005,0.201,2.281-0.197,2.005c-0.398-0.274-0.678-2.063-0.871-2.408c-0.191-0.344-1.721-1.219-1.721-1.219L63.021,43.126z
		"/>
	<path fill="#BF2026" d="M37.614,89.598l1.221,6.729c0,0-0.088,6.16-0.609,6.785c-0.521,0.629,4.855,4.006,8.988,3.49
		c4.129-0.516,11.527-6.248,14.082-6.77c2.555-0.523,5.373-1.535,5.373-1.535l2.529-0.168c0,0,0.055-8.08,0-9.246
		c-0.053-1.16,0-5.334,0-5.334l-13.057-6.652L40.54,79.199L37.614,89.598z"/>
	<path fill="#BF2026" d="M57.722,43.775c0,0-1.762,3.151-2.854,3.759c-1.094,0.609-7.918,0.717-7.918,0.717s-1.186,0.76-3.133,2.063
		c-1.945,1.303-2.461,2.583-2.461,2.583s-1.309,3.064-0.611,5.149c0.693,2.084,5.385,12,5.385,12S61.94,58.654,62.374,57.785
		c0.436-0.868,3.67-9.817,3.701-10.381c0.033-0.563-1.752-3.257-1.857-3.517c-0.105-0.261-2.648-1.076-2.648-1.076L57.722,43.775z"
		/>
	<path fill="#9A1D26" d="M37.231,72.002c0,0-1.369,8.717-2.018,9.412s-0.215,4.609-0.738,6.17c-0.52,1.563-3.127,4.561-3.127,4.561
		s2.256,2.512,3.865,2.928c1.607,0.414,8.561-1.164,8.561-1.164s-1.213-4.439-1.064-6.324c0.146-1.883,2.266-7.734,2.314-9.645
		s0.756-12.504,0.756-12.504"/>
	<path fill="#BF2026" d="M36.638,72.002c0,0-1.371,8.717-2.02,9.412c-0.65,0.695-0.215,4.609-0.736,6.17
		c-0.521,1.563-3.129,4.561-3.129,4.561s2.256,2.512,3.865,2.928c1.605,0.414,8.559-1.164,8.559-1.164s-1.209-4.439-1.063-6.324
		c0.146-1.883,2.266-7.734,2.316-9.645c0.047-1.91,0.752-12.504,0.752-12.504"/>
	<path fill="#BF2026" d="M59.349,60l1.131-16.917c0,0,1.998-0.363,2.541,0.04c0.545,0.402,5.848,8.936,6.178,10.83
		s-2.328,6.359-2.328,6.359l-4.521,8.558c0,0,0.344,0.817,1.631,2.14s2.094,2.323,2.689,3.656c0.598,1.333,2.529,8.882,2.529,8.882
		l-2.529,2.252l-5.934-1.693l-5.867-3.357l-0.436-13.829L59.349,60z"/>
	<path fill="#4891CE" d="M46.95,48.251c0,0,0.605,6.975,3.668,8.779c3.064,1.804,16.627,2.783,16.627,2.783l-0.867,2.635
		c0,0-3.158,6.755-4.51,10.904s-4.146,22.49-4.146,23.74s-13.705,2.899-14.873,2.32c-1.166-0.579-2.584-2.32-2.584-2.32
		s-9.703-1.271-8.916-2.432s-1.834-2.058-1.834-2.058s4.172-5.938,4.754-10.271c0.58-4.332,2.09-24.641,2.334-25.903
		c0.246-1.262,3.242-4.433,5.078-6.181C43.515,48.5,46.95,48.251,46.95,48.251z"/>
</g>
</svg>
