<?xml version="1.0" encoding="utf-8"?>
<!-- Generator: Adobe Illustrator 16.0.0, SVG Export Plug-In . SVG Version: 6.00 Build 0)  -->
<!DOCTYPE svg PUBLIC "-//W3C//DTD SVG 1.1//EN" "http://www.w3.org/Graphics/SVG/1.1/DTD/svg11.dtd">
<svg version="1.1" id="Layer_1" xmlns="http://www.w3.org/2000/svg" xmlns:xlink="http://www.w3.org/1999/xlink" x="0px" y="0px"
	 width="100px" height="150px" viewBox="0 0 100 150" enable-background="new 0 0 100 150" xml:space="preserve">
<g>
	<path fill="#C9A896" d="M45.812,84.107"/>
	<path fill="#303030" d="M34.01,89.598c0,0,2.172,12.285,3.302,13.873c1.13,1.592,4.865,3.502,5.646,3.066
		c0.783-0.434,4.098-5.578,4.179-7.393c0.079-1.814,4.209-8.418,1.383-10.762C45.691,86.039,34.01,89.598,34.01,89.598z"/>
	<path fill="#303030" d="M37.397,100.545c0,0-2.866,3.859-2.432,6.057c0.435,2.195,1.478,7.131,1.564,7.705
		c0.042,0.285-0.229,0.992-0.422,1.641c-0.193,0.646-0.308,1.234,0.051,1.277c0.717,0.088,5.062-2.018,5.062-2.918
		c0-0.904,2.347-10.111,2.347-10.111L37.397,100.545z"/>
	<path fill="#303030" d="M36.443,118.787c1.215,0.521,2.866-1.326,4.082-2.357c1.217-1.029,6.686-5.178,6.61-5.895
		c-0.077-0.719-2.267-2.031-3.048-1.973c-0.781,0.063-3.302,0.324-3.302,0.324s-6.081,7.643-5.212,8.771
		S36.443,118.787,36.443,118.787z"/>
	<path fill="#C9A896" d="M40.664,43.348c0,0-5.004-2.918-7.261,1.947c-2.26,4.864-3.65,8.08-2.606,11.206
		c1.041,3.127,2.171,5.212,2.258,5.82c0.088,0.608-0.348,1.478,0.261,2.347c0.609,0.868,0.868,1.059,0.868,1.059
		s2.347,5.022,3.128,6.239c0.782,1.216,5.646-3.094,5.646-3.094s-1.823-4.465-1.996-4.813c-0.175-0.346-3.914-5.56-4.261-6.081
		c-0.345-0.521,0.872-4.864,1.22-6.167C38.268,50.507,40.664,43.348,40.664,43.348z"/>
	<path fill="#ECCFC1" d="M54.426,40.669c0,0,1.889,0.456,2.997-0.391c1.106-0.848,1.498-3.365,1.823-3.963
		c0.326-0.599,1.498-2.357,1.239-3.921c-0.263-1.564-0.587-1.352-0.328-2.142c0.263-0.79,0.915-3.136,0.85-4.177
		c-0.065-1.042,0.39-5.473-1.956-7.297c-2.346-1.824-7.297-4.057-12.966-2.256c-5.668,1.8-7.362,6.755-6.905,11.803
		c0.454,5.048,4.756,9.869,6.84,10.39c2.085,0.521,5.539,0,5.539,0L54.426,40.669z"/>
	<path fill="#ECCFC1" d="M55.728,39.691c0,0-1.693,2.541-1.954,4.3c-0.259,1.759,0,4.886,0,4.886s-3.063,0.261-4.821-0.521
		c-1.759-0.781-6.711-4.495-6.711-4.495s2.24,1.04,1.738-6.419c-0.499-7.458,7.709,0.165,8.622,0.49S55.728,39.691,55.728,39.691z"
		/>
	<path d="M60.679,25.423c-0.128-1.239-0.649,5.994-0.846,7.231c-0.195,1.238-0.651,1.759-1.108,1.89
		c-0.456,0.131-1.758-1.043-2.02-1.303c-0.261-0.261-1.499,1.172-1.628,2.085c-0.13,0.912-0.521,2.345-0.521,2.345
		s-2.215,1.694-2.736,1.955c-0.521,0.26-3.388,1.166-4.236,1.166c-0.846,0-1.693,0-3.576,0c-2.018,0-3.852-2.013-5.219-3.511
		c-1.367-1.499-4.431-6.776-4.169-9.513c0.26-2.736,0.26-7.861,5.015-11.912c4.758-4.051,8.992-6.332,11.729-5.745
		c2.737,0.586,9.838,3.127,10.034,5.147c0.195,2.019,1.758,5.473,1.369,6.971C62.374,23.729,60.679,25.423,60.679,25.423z"/>
	<path d="M37.485,24.771c0,0-4.795-1.783-5.603-3.322c-0.861-1.64-2.412-2.542-1.305-4.691c1.107-2.15,1.237-2.476,3.291-3.909
		c2.052-1.434,3.931-1.694,5.24-2.541c1.308-0.847,2.938-3.063,3.459-3.453c0.52-0.391,4.933,0.782,6.146-0.391
		c1.216-1.173,0.563-1.499,0.563-1.499s0.806,1.759,0.175,2.215c-0.631,0.456-3.434,1.433-4.344,1.367
		c-0.913-0.064-1.824-0.129-2.152,1.174c-0.326,1.303-0.716,1.889-0.716,1.889s3.324,0.848,2.542,2.476
		c-0.782,1.629-1.695,7.558-3.584,8.861C39.31,24.25,37.485,24.771,37.485,24.771z"/>
	<path d="M41.524,10.763c0,0,3.778-0.313,4.495-0.743c0.718-0.43,4.236-1.081,4.495-2.059c0.264-0.978,0-1.042,0-1.042
		s0.913,1.694,0.783,1.922c-0.131,0.229-2.215,0.829-3.127,1.179c-0.912,0.352-1.89,0.157-2.411,0.743
		c-0.521,0.587,0.658,1.498,0.658,1.498l-3.589,2.021c0,0-1.239-0.587-1.305-0.913C41.46,13.043,41.524,10.763,41.524,10.763z"/>
	<path d="M52.406,37.932c0,0-0.327,2.802,0.521,2.476c0.847-0.326,1.233-0.852,1.303-1.224c0.069-0.373,0.457,1.209-0.391,1.608
		c-0.847,0.398-1.89,2.027-2.932,0.464c-1.042-1.564-2.192-2.998-2.192-2.998L52.406,37.932z"/>
	<path d="M61.526,44.123"/>
	<path fill="#ECCFC1" d="M46.693,44.828c0,0-6.775-2.053-9.035-1.705c-2.258,0.346-6.34,9.208-5.559,12.335
		c0.782,3.129,3.214,7.819,3.561,8.6c0.349,0.782,2.434,3.736,1.912,5.995c-0.521,2.26-3.301,2.694-3.908,7.037
		c-0.609,4.344-0.782,9.383,6.254,12.508c7.036,3.129,15.551,5.82,17.547,4.863c1.998-0.953,5.109-2.604,4.779-5.816
		c-0.33-3.215-0.002-10.426-0.718-12.943c-1.106-3.912,2.889-11.643-1.803-22.154c-0.835-1.872-5.132-4.391-5.345-4.628
		c-0.215-0.237-3.864-2.148-3.864-2.148L46.693,44.828z"/>
	<path fill="#9A1D26" d="M59.552,55.458c0,0,3.561,2.519,4.344,2.954c0.78,0.435,3.996,3.041,3.996,6.95s-4.171,7.471-9.036,4.083
		C53.992,66.057,59.552,55.458,59.552,55.458z"/>
	<path fill="#BF2026" d="M58.336,55.458c0,0,3.759,2.519,4.583,2.954c0.825,0.435,4.218,3.041,4.218,6.95s-4.4,7.471-9.535,4.083
		C52.467,66.057,58.336,55.458,58.336,55.458z"/>
	<path fill="#ECCFC1" d="M34.444,76.307c0,0-4.453,8.602-2.441,13.291c2.007,4.691,5.743,6.344,9.913,5.475
		c4.169-0.869,5.917-3.42,5.22-6.689C46.437,85.113,34.444,76.307,34.444,76.307z"/>
	<path fill="#C9A896" d="M40.589,85.799c0,0-3.277,7.887-0.932,11.145c2.345,3.256,5.561,5.764,7.036,6.266
		c1.478,0.502,2.173,0.584,2.173,0.584s5.82,0.666,8.861-2.592c3.038-3.254,5.038-8.938,3.689-13.195
		C60.073,83.746,40.589,85.799,40.589,85.799z"/>
	<path fill="#ECCFC1" d="M40.757,85.242c0,0-2.778,8.6-0.433,11.99c2.345,3.389,5.559,5.992,7.035,6.514
		c1.478,0.52,2.174,0.611,2.174,0.611s5.817,0.691,8.859-2.695c3.039-3.389,5.038-9.297,3.693-13.727
		C60.738,83.502,40.757,85.242,40.757,85.242z"/>
	<path fill="#3F403F" d="M42.957,98.342c0,0,2.087,14.537,3.736,16.449c1.65,1.912,3.214,1.811,4.345,1.383
		c1.128-0.428,3.474-2.686,5.211-6.943c1.737-4.254,4.603-7.035,4.821-9.727c0.217-2.693,1.26-8.279,0.347-8.744
		c-0.91-0.467-10.467-0.553-12.64,2.4C46.606,96.115,42.957,98.342,42.957,98.342z"/>
	<path fill="#3F403F" d="M46.085,111.057c0,0-1.041,7.037-0.694,9.035c0.348,1.996,1.391,4.254,1.391,5.385
		c0,0.43-0.101,1.086-0.189,1.771c-0.057,0.459-0.107,0.93-0.118,1.357c-0.017,0.613,0.054,1.135,0.308,1.389
		c0.694,0.695,2.952,1.217,3.733,0c0.783-1.217,0.956-3.65,1.479-5.299c0.521-1.65,1.824-4.865,1.824-6.34
		c0-1.479,1.043-5.908,0.521-7.299s-3.389-3.129-5.562-2.26C46.606,109.666,46.085,111.057,46.085,111.057z"/>
	<path fill="#3F403F" d="M47.136,127.908c0,0-1.658,3.215-1.051,3.736c0.608,0.521,1.391,1.477,2.434,1.041
		c1.042-0.434,2.52-1.129,3.04-1.215s4.951-0.955,5.473-1.824c0.52-0.869,2.26-2.781,1.999-4.43c-0.261-1.652-1.13-1.146-1.13-1.146
		s0.521-0.938,0.086-1.285c-0.436-0.35-1.129-0.955-2.259,0c-1.128,0.955-4.517,3.213-5.213,3.213
		C49.821,125.998,47.136,127.908,47.136,127.908z"/>
	<path fill="#9A1D26" d="M57,54.763c0,0,4.39-1.823,5.088,0c0.699,1.824,2.688,15.637,2.417,19.373
		c-0.271,3.735-1.581,5.995-3.188,5.733c-1.605-0.26-6.128-3.736-6.67-6.342c-0.543-2.606-0.774-6.428-0.774-6.428
		s-1.306-3.937,0.774-6.368C56.727,58.298,57,54.763,57,54.763z"/>
	<path fill="#C9A896" d="M55.728,73.356c0,0,0.988,7.919,1.437,8.996c0.448,1.082,1.617,4.729,2.604,6.203
		c0.986,1.479,2.782,3.475,3.321,4.605c0.538,1.129,3.321,0.98,3.321-0.424c0-1.4-0.718-4.006-0.539-5.568
		c0.179-1.564,0.448-3.389,0.091-5.389c-0.359-1.998-2.156-7.296-2.962-8.946c-0.808-1.651-2.829-2.344-4.603-1.389
		C56.626,72.398,55.728,73.356,55.728,73.356z"/>
	<path fill="#BF2026" d="M57.343,52.417c0,0,3.857,0.522,4.497,2.346c0.64,1.824,2.461,15.637,2.213,19.373
		c-0.248,3.735-1.451,5.995-2.92,5.733c-1.47-0.26-5.611-3.736-6.108-6.342c-0.498-2.606-0.708-6.428-0.708-6.428
		s-2.438-9.208-0.535-11.641C55.686,53.027,57.343,52.417,57.343,52.417z"/>
	<path fill="#ECCFC1" d="M56.249,73.356c0,0,0.906,7.919,1.319,8.996c0.412,1.082,1.484,4.729,2.392,6.203
		c0.906,1.479,2.556,3.475,3.052,4.605c0.494,1.129,3.05,0.98,3.05-0.424c0-1.4-0.66-4.006-0.494-5.568
		c0.164-1.564,0.41-3.389,0.082-5.389c-0.328-1.998-1.978-7.296-2.72-8.946c-0.744-1.651-2.6-2.344-4.226-1.389
		C57.073,72.398,56.249,73.356,56.249,73.356z"/>
	<path fill="#ECCFC1" d="M62.374,90.381c0,0-0.128,2.715,0,3.527c0.131,0.816,1.086,1.338,0.825,2.119
		c-0.259,0.783-1.782,2.314-1.782,2.314l1.435,2.203c0,0,1.91-0.193,2.521-1.4c0.605-1.205,1.737-3.551,1.823-3.682
		c0.086-0.133-1.823-5.865-1.823-5.865L62.374,90.381z"/>
	<path fill="#ECCFC1" d="M37.658,43.126c0,0-1.459-0.288-2.321,0.334c-0.865,0.622-4.584,8.375-4.384,10.381
		c0.198,2.005-0.2,2.281,0.198,2.005c0.398-0.274,0.677-2.063,0.87-2.408c0.192-0.344,1.721-1.219,1.721-1.219L37.658,43.126z"/>
	<path fill="#BF2026" d="M63.064,89.598l-1.22,6.729c0,0,0.088,6.16,0.609,6.785c0.521,0.629-4.856,4.006-8.988,3.49
		c-4.129-0.516-11.528-6.248-14.083-6.77c-2.555-0.523-5.373-1.535-5.373-1.535l-2.529-0.168c0,0-0.054-8.08,0-9.246
		c0.054-1.16,0-5.334,0-5.334l13.057-6.652l15.602,2.303L63.064,89.598z"/>
	<path fill="#BF2026" d="M42.957,43.775c0,0,1.763,3.151,2.854,3.759c1.093,0.609,7.918,0.717,7.918,0.717s1.186,0.76,3.132,2.063
		c1.945,1.303,2.461,2.583,2.461,2.583s1.309,3.064,0.612,5.149c-0.694,2.084-5.385,12-5.385,12S38.739,58.654,38.305,57.785
		c-0.435-0.868-3.669-9.817-3.701-10.381c-0.033-0.563,1.753-3.257,1.858-3.517c0.105-0.261,2.647-1.076,2.647-1.076L42.957,43.775z
		"/>
	<path fill="#4891CE" d="M41.326,43.474c0,0-1.675-0.444-2.217,0.332c-0.544,0.774-3.367,6.075,2.649,12.156
		c6.015,6.082,11.707,8.102,11.707,8.102l5.532,9.533c0,0-2.82,9.301-3.502,13.031c-0.684,3.729-1.012,11.633-1.012,11.633
		s-3.857,0.475-8.673-2.018c-4.814-2.492-5.363-4.301-7-5.006c-1.637-0.701-7.716-2.959-8.368-4.695
		c-0.651-1.738-0.303-31.411,0-34.124c0.304-2.711,1.953-8.226,3.17-9.333c1.216-1.11,3.793-1.5,5.198-1.175
		c1.405,0.326,3.43,1.756,3.43,1.756"/>
	<path fill="#9A1D26" d="M63.447,72.002c0,0,1.369,8.717,2.018,9.412c0.649,0.695,0.216,4.609,0.738,6.17
		c0.52,1.563,3.127,4.561,3.127,4.561s-2.255,2.512-3.865,2.928c-1.607,0.414-8.56-1.164-8.56-1.164s1.212-4.439,1.064-6.324
		c-0.147-1.883-2.266-7.734-2.315-9.645c-0.049-1.91-0.756-12.504-0.756-12.504"/>
	<path fill="#BF2026" d="M64.042,72.002c0,0,1.37,8.717,2.02,9.412c0.65,0.695,0.215,4.609,0.736,6.17
		c0.521,1.563,3.128,4.561,3.128,4.561s-2.255,2.512-3.864,2.928c-1.606,0.414-8.559-1.164-8.559-1.164s1.209-4.439,1.063-6.324
		c-0.147-1.883-2.266-7.734-2.316-9.645c-0.048-1.91-0.753-12.504-0.753-12.504"/>
</g>
</svg>
