<?xml version="1.0" encoding="utf-8"?>
<!-- Generator: Adobe Illustrator 16.0.0, SVG Export Plug-In . SVG Version: 6.00 Build 0)  -->
<!DOCTYPE svg PUBLIC "-//W3C//DTD SVG 1.1//EN" "http://www.w3.org/Graphics/SVG/1.1/DTD/svg11.dtd">
<svg version="1.1" id="Layer_1" xmlns="http://www.w3.org/2000/svg" xmlns:xlink="http://www.w3.org/1999/xlink" x="0px" y="0px"
	 width="100px" height="150px" viewBox="0 0 100 150" enable-background="new 0 0 100 150" xml:space="preserve">
<g>
	<path fill="#3F403F" d="M59.07,116.82c0,0,1.086,2.387,1.26,3.344c0.174,0.955-0.825,2.823-0.912,3.474
		c-0.088,0.651-0.695,4.865-1.043,5.431c-0.348,0.563-2.259,2.259-2.389,2.259s-1.563,1.78-3.172,0.955
		c-1.606-0.824-2.388-0.912-2.259-1.912c0.131-0.999,3.477-7.036,3.867-8.252c0.391-1.215,0.521-4.82,0.521-4.82
		s2.26-1.044,2.823-0.869C58.332,116.604,59.07,116.82,59.07,116.82z"/>
	<path fill="#3F403F" d="M51.687,108.091c0,0,2.953,7.514,2.953,8.513s0.304,4.3,1.65,4.646c1.348,0.349,2.78-3.084,3.259-4.3
		c0.478-1.216,1.303-3.258,1.432-4.909c0.131-1.649,0.271-3.691-0.689-5.474c-0.961-1.781-0.742-4.82-0.742-4.82
		s-8.124,2.086-8.21,3.779C51.251,107.222,51.687,108.091,51.687,108.091z"/>
	<path fill="#3F403F" d="M47.688,87.761c-0.608,0.824-1.563,5.604-0.824,9.947s2.953,10.642,4.996,11.382
		c2.041,0.736,7.231-4.688,7.991-6.431c0.762-1.743,4.086-10.422,3.735-14.16c-0.351-3.733-0.737-6.559-0.737-6.559
		s-5.039,0.434-8.688,1.956C50.514,85.413,47.688,87.761,47.688,87.761z"/>
	<path fill="#9A1D26" d="M52.967,38.796c0,0,8.303-0.161,11.492,8.678c3.186,8.839-11.733,1.195-12.45,0
		C51.292,46.279,52.967,38.796,52.967,38.796z"/>
	<path fill="#303030" d="M33.189,78.421c0,0,1.773,13.926,4.705,17.931s4.496,4.135,6.125,3.744c1.628-0.39,4.179-2.02,4.922-5.602
		c0.746-3.587-0.297-7.688-1.6-9.058C46.039,84.069,33.189,78.421,33.189,78.421z"/>
	<path fill="#303030" d="M38.285,96.352c0,0,2.561,10.195,2.942,11.628c0.38,1.432,0.643,2.476,1.554,2.736
		c0.912,0.261,2.77-1.498,2.898-2.705c0.131-1.203,0.554-3.029,0.783-3.877c0.227-0.846,1.139-4.448,1.042-5.374
		c-0.097-0.924-0.392-2.116-0.488-2.182C46.919,96.513,38.285,96.352,38.285,96.352z"/>
	<path fill="#303030" d="M41.642,107.947c0,0-0.815,2.34-1.108,2.543c-0.293,0.2-3.975,2.213-4.332,2.67
		c-0.359,0.456-2.086,2.541-1.729,3.42c0.36,0.88,1.565,1.954,1.695,2.149c0.13,0.196,0.163,0.587,0.944,0.423
		c0.782-0.161,5.766-4.977,6.255-5.582c0.489-0.608,2.835-2.594,2.606-3.505c-0.229-0.91-0.357-2.347-0.749-2.476
		C44.832,107.458,41.642,107.947,41.642,107.947z"/>
	<path fill="#C9A896" d="M32.878,64.784c0,0-1.824,10.512-2.345,11.031c-0.522,0.523-1.087,3.475-1.087,3.475l0.262,2.911
		l2.17,2.302h1.651c0,0,0.738-1.955,0.607-2.171c-0.13-0.219-1.693-1.954-1.693-1.954l1.086-3.478l3.345-10.379L32.878,64.784z"/>
	<path fill="#4891CE" d="M32.462,64.784c0,0-0.695,5.404-1.13,6.589c-0.433,1.184-1.886,4.051-1.886,4.051l4.979,2.997l1.773-9.773
		L32.462,64.784z"/>
	<path fill="#9A1D26" d="M32.777,78.421c0,0,0.01,7.792-0.445,10.4c-0.456,2.61-1.599,3.719-1.599,3.719s1.556,0.91,2.456,0.91
		c0.901,0,1.423,0.322,2.466,0.846c1.042,0.521,1.488,0.457,1.488,0.457V81.139L32.777,78.421z"/>
	<path fill="#9A1D26" d="M42.011,38.227c0,0-3.834,0.668-4.397,1.863c-0.565,1.194-1.087,3.41-1.349,4.93
		c-0.26,1.52-0.998,10.165-0.998,10.165s4.622-3.519,4.982-4.257c0.36-0.738,2.776-8.73,2.654-9.947
		C42.781,39.764,42.011,38.227,42.011,38.227z"/>
	<path fill="#ECCFC1" d="M41.47,38.238l8.956-0.327l3.909-1.992l-0.434,1.992c0,0,2.779,2.471,3.398,2.895
		c0.619,0.423,3.942,2.171,4.235,2.552c0.293,0.379,4.277,7.438,3.234,11.216c-1.042,3.78-4.299,12.857-4.604,13.726
		s-0.087,2.563,0.087,3.387c0.174,0.828,2.476,6.822,2.823,8.645c0.348,1.824-0.217,8.21-4.517,9.426
		c-2.653,0.749-12.289-0.808-18.766-4.211c-4.023-2.118-6.588-6.088-6.604-7.127c-0.03-2.04,2.208-7.261,2.077-8.608
		c-0.054-0.555-2.128-1.17-2.074-4.9c0.077-5.33,1.665-11.861,2.866-14.593C38.102,45.671,41.47,38.238,41.47,38.238z"/>
	<path fill="#C9A896" d="M44.78,40.915h0.368c0,0,0.739,1.802,0.608,3.301c-0.13,1.5-0.184,2.411-0.184,2.411
		s-1.968-2.692-2.098-3.562c-0.13-0.868-0.715-2.975-0.715-2.975"/>
	<path fill="#C9A896" d="M55.422,36.593c0,0-2.281,6.364-3.128,7.275c-0.846,0.913-5.344,3.605-5.344,3.605s4.193-4.017,4.736-4.93
		c0.543-0.912,2.736-5.951,2.736-5.951"/>
	<path d="M38.515,18.133c0,0-1.271,1.4-1.044,3.388c0.228,1.988-0.358,2.411,1.044,2.965c1.4,0.553,2.355,0.619,2.355,0.619
		s3.734-3.729,3.735-4.137c0.002-0.41-2.733-3.681-2.733-3.681L38.515,18.133z"/>
	<path fill="#BF2026" d="M35.267,52.504c0,0-0.765,1.642-1.461,2.176c-0.698,0.536-4.774,4.097-3.754,8.25
		c1.02,4.153,4.694,5.351,4.756,6.882c0.062,1.53-2.365,8.356-2.109,9.747c0.258,1.393,3.575,15.294,3.217,15.988
		c-0.357,0.694,1.755-0.377,5.276,0c3.519,0.381,4.117,5.984,10.639,6.788c6.52,0.801,9.549-1.509,10.901-2.568
		c1.353-1.061,3.791-22.346,3.354-27.253c-0.438-4.909-4.401-18.423-7.718-20.875c-3.319-2.451-6.622-3.32-8.024-4.012
		c-1.403-0.692-5.873-2.135-6.868-4.27c-0.995-2.136-0.577-5.132-0.577-5.132l-1.402,0.018l-4.038,7.905L35.267,52.504z"/>
	<path fill="#BF2026" d="M37.881,51.968c0,0-8.971,4.203-7.829,10.962c1.14,6.761,8.485,5.177,10.155,3.753
		c1.67-1.423,4.622-3.508,4.059-9.849C43.701,50.493,37.881,51.968,37.881,51.968z"/>
	<path fill="#BF2026" d="M38.663,51.044c0,0-8.972,4.203-7.83,10.962c1.142,6.76,8.486,5.175,10.156,3.752
		c1.67-1.424,4.622-3.508,4.059-9.85C44.483,49.567,38.663,51.044,38.663,51.044z"/>
	<path d="M61.025,26.712c0,0-1.564,6.268-2.085,6.809c-0.521,0.542-1.402,1.324-1.564,1.552c-0.163,0.228-0.944,1.752-0.912,2.131
		c0.032,0.377-0.424,1.127,0.357,1.094c0.782-0.033,1.694-0.717,1.694-0.814c0-0.098-0.065-0.608-0.065-0.608s0.62,0.413,0.49,0.902
		c-0.132,0.488-1.435,1.465-1.531,1.498c-0.099,0.033-1.174,0.684-1.369,0.586s-1.107-0.456-1.271-0.716
		c-0.162-0.261-0.781-1.467-0.781-1.467l0.195-2.036l1.89-2.756l0.912-2.035L61.025,26.712z"/>
	<path fill="#4891CE" d="M34.552,53.791c0,0,6.159-0.468,8.209,0.132s16.613,5.615,16.613,5.615v-3.615
		c0,0-14.165-10.235-16.152-13.226s-0.318-5.494-0.318-5.494s-4.854,1.918-5.46,2.669c-0.605,0.75-3.505,14.476-3.505,14.476"/>
	<path fill="#C9A896" d="M40.395,21.383c-0.56,1.401-1.173,4.984-0.978,5.441c0.195,0.456,0.783,1.238,0.783,1.53
		c0,0.293-0.392,1.467-0.457,1.857s-0.131,3.063,0.295,3.747c0.421,0.684,1.269,3.648,1.269,3.844c0,0.195,0.164,3.063,1.174,3.42
		c1.009,0.358,3.452,0.814,5.733-0.227c2.28-1.044,3.682-1.857,4.561-3.325c0.133-0.22,0.289-0.494,0.462-0.801
		c0.979-1.741,2.438-4.541,2.438-4.541s2.411-0.847,3.52-2.345c1.107-1.499,3.68-8.535,0.357-12.607
		c-3.323-4.072-8.032-3.198-10.621-2.95C46.226,14.688,42.74,15.52,40.395,21.383z"/>
	<path fill="#ECCFC1" d="M40.395,20.935c-0.56,1.402-1.173,4.984-0.978,5.44c0.195,0.457,0.783,1.238,0.783,1.531
		c0,0.294-0.392,1.467-0.457,1.857c-0.065,0.392-0.131,3.063,0.295,3.747c0.421,0.684,1.269,3.648,1.269,3.844
		c0,0.195,0.164,3.062,1.174,3.419c1.009,0.359,3.452,0.815,5.733-0.227c2.28-1.043,3.682-1.857,4.561-3.323
		c0.133-0.221,0.289-0.496,0.462-0.803c0.979-1.74,2.438-4.54,2.438-4.54s2.411-0.847,3.52-2.346
		c1.107-1.498,3.68-8.535,0.357-12.606c-3.323-4.073-8.032-3.199-10.621-2.95C46.226,14.24,42.74,15.071,40.395,20.935z"/>
	<path fill="#C9A896" d="M50.286,29.991c0,0-1.642-0.286-1.837-0.176s-0.641,0.442-0.641,0.442l-2.965,0.025l-0.531,0.708
		l-0.488-0.436h-0.131c0,0-0.013,0.375-0.098,0c-0.086-0.376-0.062-0.543-0.062-0.543l0.159-1.479l2.639-0.22l1.743,0.488
		L50.286,29.991z"/>
	<path fill="#AD7368" d="M44.313,30.99c0,0,0.623-1.944,1.541-1.895c0.918,0.048,2.911,1.853,2.911,1.853l0.337,0.313
		c0,0-1.996-0.454-2.645-0.569c-0.646-0.114-1.281-0.212-1.281-0.212L44.313,30.99z"/>
	<path fill="#C9A896" d="M49.102,31.261c0,0-1.6,1.157-2.593,0.88c-0.991-0.277-2.147-1.289-2.147-1.289l0.594-0.242L49.102,31.261z
		"/>
	<path fill="#FFFFFF" d="M46.914,30.468c0.398,0.22,1.161,0.785,1.161,0.785l-0.473,0.073c0,0-0.388,0.314-1.311,0.252
		c-0.553-0.037-0.88-0.806-0.88-0.806l-0.317-0.195l0.695-0.294C45.79,30.284,46.515,30.249,46.914,30.468z"/>
	<path fill="#4C301D" d="M46.853,30.43c0,0-0.146,1.001-0.906,0.868c-0.661-0.117-0.494-1.063-0.494-1.063L46.853,30.43z"/>
	<path d="M44.793,30.716l0.358,0.057c0,0,0.211,0.685,1.011,0.912c0.797,0.228,1.588-0.091,1.913-0.228
		c0.538-0.228,0.689-0.315,0.689-0.315s-0.56-0.239-1.211-0.532c-0.651-0.293-1.521-0.462-1.7-0.478
		c-0.179-0.017-0.914,0.25-0.995,0.364C44.776,30.61,44.793,30.716,44.793,30.716z M45.095,30.578c0,0,0.431-0.233,0.759-0.218
		c0.329,0.017,0.65-0.052,1.049,0.169c0.369,0.202,0.337,0.163,1.173,0.724l-0.473,0.073c0,0-0.489,0.314-1.311,0.252
		c-0.553-0.042-0.88-0.806-0.88-0.806L45.095,30.578z"/>
	<path d="M45.605,30.772"/>
	<path d="M46.509,30.387c0,0-0.128,0.465-0.56,0.465c-0.283,0-0.277-0.595-0.277-0.595h0.34l0.385,0.066"/>
	<path d="M41.824,29.404"/>
	<path fill="#C9A896" d="M40.171,29.209c0,0,0.011,0.742,0.325,0.802c0.313,0.061,1.515-0.487,1.515-0.487L40.171,29.209z"/>
	<path fill="#AD7368" d="M39.909,28.427c0,0,0.313-1.031,0.581-0.966c0.558,0.136,1.401,1.259,1.521,1.943"/>
	<path fill="#FFFFFF" d="M40.916,28.688c0.166,0.091,0.872,0.746,0.872,0.746s-0.213,0.048-0.412,0.077s-0.5,0.02-0.716-0.077
		c-0.217-0.098-0.347-0.404-0.392-0.578c-0.045-0.176,0-0.322,0-0.322S40.75,28.598,40.916,28.688z"/>
	<path fill="#4C301D" d="M41.132,28.69c0,0,0.069,0.196,0.028,0.387c-0.041,0.191-0.171,0.347-0.351,0.313
		c-0.178-0.033-0.483-0.154-0.501-0.631c-0.016-0.476,0.144-0.407,0.144-0.407L41.132,28.69z"/>
	<path d="M40.867,28.601c0,0,0.098,0.135,0.081,0.271s-0.119,0.303-0.229,0.263c-0.107-0.041-0.23-0.089-0.224-0.379
		c0.009-0.289,0.116-0.294,0.116-0.294L40.867,28.601z"/>
	<path d="M39.958,28.546l0.225,0.048c-0.008,0.094-0.016,0.23-0.004,0.339l-0.123-0.018c0,0,0.163,0.51,0.358,0.663
		c0.195,0.151,0.641,0.08,0.998,0.059c0.314-0.02,0.371-0.037,0.599-0.05v-0.183c0,0-0.815-0.999-1.217-1.075
		c-0.402-0.076-1.064,0.152-1.064,0.152L39.958,28.546z M40.269,28.533c0,0,0.481,0.065,0.647,0.154
		c0.166,0.091,0.872,0.746,0.872,0.746s-0.213,0.048-0.412,0.077s-0.5,0.02-0.716-0.077c-0.217-0.098-0.347-0.404-0.392-0.578
		C40.224,28.679,40.269,28.533,40.269,28.533z"/>
	<path d="M48.449,30.61c0,0-1.912-1.479-2.519-1.582c-0.608-0.102-1.087,0.791-1.087,0.791s0.663-0.682,0.946-0.607
		C46.071,29.285,48.449,30.61,48.449,30.61z"/>
	<path d="M41.271,28.047c0,0-0.456-0.641-0.781-0.586c-0.326,0.054-0.369,0.358-0.369,0.358s0.25-0.282,0.369-0.271
		S41.271,28.047,41.271,28.047z"/>
	<path d="M41.561,28.047l-0.543-1.021c0,0-0.826-0.505-1.039-0.977c-0.211-0.473-0.5-0.672-0.5-0.672l-0.097,0.9L41.561,28.047z"/>
	<path d="M43.596,28.801l0.113-0.618c0,0,1.806-0.261,2.434-0.343c0.629-0.081,1.524,0.196,1.933,0.391s2.157,1.548,2.211,1.759
		c0.053,0.211-2.227-1.222-2.766-1.352c-0.536-0.13-1.679-0.195-2.149-0.105C44.898,28.622,43.596,28.801,43.596,28.801z"/>
	<path fill="#C9A896" d="M43.693,28.872c0,0-1.157,4.425-1.353,4.865c-0.194,0.44-0.228,0.832-0.228,0.832s0.799-0.799,1.58-0.424
		c0,0-0.88-0.602-0.652-1.336C43.27,32.075,43.693,28.872,43.693,28.872z"/>
	<path fill="#C9A896" d="M42.011,30.131c0,0-0.638,1.83-0.837,2.205c-0.201,0.375-0.747,1.662-0.678,2.052
		c0.069,0.392,0.835,1.011,1.064,0.994c0.228-0.016,0.488-0.178,0.862-0.065c0.373,0.114,0.83,0.326,0.83,0.326
		s-0.358-0.57-0.748-0.619c-0.392-0.049-0.686,0.228-0.944,0.18c-0.262-0.049-0.734-0.362-0.865-0.848
		C40.567,33.871,42.011,30.131,42.011,30.131z"/>
	<path fill="#B04E41" d="M45.573,37.907c0,0-1.318,0.472-1.953,0.733c-0.636,0.26-1.352,0.147-1.596,0
		c-0.245-0.146-0.636-0.766-0.563-1.197c0.074-0.431,0.146-0.375,0.146-0.375l1.084,0.456c0,0,0.603,0.106,0.627,0.106
		s1.4,0.196,1.4,0.196L45.573,37.907z"/>
	<path fill="#662D23" d="M45.573,37.907c0,0-1.249-0.163-1.88-0.478c-0.63-0.314-0.88-0.466-1.26-0.554
		c-0.38-0.087-0.5,0.098-0.5,0.098s-0.28-0.457-0.455-0.479c-0.174-0.021-0.099,0.566,0.054,0.706
		c0.152,0.142,0.043,0.293,0.707,0.424c0.662,0.129,2.096,0.271,2.389,0.282C44.92,37.917,45.573,37.907,45.573,37.907z"/>
	<path fill="#C9A896" d="M52.967,36.875c0,0,1.086-0.174,1.673-0.478c0.586-0.305,1.607-0.456,2.193-1.085
		c0.586-0.63,4.224-3.494,1.978-4.885c-1.456-0.902-3.02,0.833-3.02,0.833"/>
	<path d="M38.318,15.722c0,0-0.57,1.916,0,2.997c1.063,2.02,3.189,2.752,8.19,2.821c5.003,0.068,6.458-1.582,6.458-1.582
		l-0.445,0.65c0,0-1.367,2.477-1.204,4.497c0.162,2.02,0.162,3.069,0.977,3.814c0.815,0.746,1.369,1.636,1.369,1.636
		s-0.392,1.553,0,1.847c0.39,0.293,0.879,1.042,1.498,0.814s4.594-1.091,5.57-3.543c0.978-2.451,1.368-3.526,1.694-5.872
		c0.325-2.345,0.293-3.322-0.456-5.603c-0.749-2.28-3.192-5.538-6.32-7.004c-3.128-1.465-8.374-1.433-10.555-0.26
		c-2.183,1.172-5.213,2.606-5.57,2.671c-0.359,0.065-0.62,0.358-0.945,0.978C38.253,15.201,38.318,15.722,38.318,15.722z"/>
	<path d="M57.963,13.735c0,0,1.465-1.303,0-3.16c-1.467-1.857-1.987-3.551-4.594-3.779c-2.605-0.228-2.084,0.521-2.574,0
		c-0.488-0.521-2.2-1.923-4.064-1.434s-2.939,4.594-3.478,4.529c-0.536-0.065-1.025-0.393-1.025-0.393s0.554,0.816,1.025,0.816
		s2.419-2.215,2.419-2.215s1.604-1.727,2.777-0.945c1.173,0.782,1.272,2.184,1.272,2.184l0.564,2.084c0,0,0.444,2.021,2.563,2.313
		C54.966,14.028,57.963,13.735,57.963,13.735z"/>
	<path d="M45.842,7.024c0,0-1.042,3.095-1.856,3.453c-0.813,0.358-3.004,1.303-3.245,0.554c-0.24-0.75,0-0.959,0-0.959
		s-0.691,1.024-0.27,1.448c0.421,0.423,0.664,0.517,2.018,0.292s3.604-0.748,3.604-0.748l5.388,0.097c0,0-0.488-1.727-0.651-1.922
		s-3.095-2.932-3.095-2.932L45.842,7.024z"/>
	<path fill="#ECCFC1" d="M60.156,61.26l-0.782-5.337c0,0,0.782-5.388,0.782-5.604s0.781-3.518,0.781-3.692
		c0-0.173,0.607-3.268,0.607-3.268l3.91,5.093c0,0,3.693,6.862,3.693,7.078c0,0.219,0.432,6.776,0.389,6.907
		c-0.043,0.13-0.955,8.427-0.955,8.427l-2.084,1.65c0,0-2.172-1.172-2.303-1.26c-0.131-0.087-1.52-1.868-1.65-2.085
		C62.414,68.953,60.156,61.26,60.156,61.26z"/>
	<path fill="#C9A896" d="M61.545,43.358c0,0,6.125,5.701,7.559,10.478c1.434,4.778,1.347,7.602,0.912,9.992
		c-0.436,2.387-0.955,6.993-1.39,8.033c-0.435,1.045-2.954,3.218-3.476,2.564c-0.521-0.651-2.909-3.954-3.387-5.908
		c-0.479-1.954-1.39-5.125-1.607-5.907c-0.218-0.781-0.564-4.474-0.564-4.474s3.039,10.903,3.605,11.337
		c0.563,0.433,4.82,2.954,5.212-1.825c0.391-4.777,0.868-11.9-1-15.159C65.542,49.232,61.545,43.358,61.545,43.358z"/>
	<path fill="#C9A896" d="M68.8,68.648c0,0,0.875,7.602,0.741,9.773c-0.133,2.173-1.393,8.731-1.609,10.209
		c-0.219,1.477,0.086,2.78,0,3.127c-0.088,0.35-0.74,1.91-0.869,1.954c-0.131,0.043-1.521,0.652-2.346,0
		c-0.825-0.651-1.26-2.431-1.26-2.431s-0.304-9.172-0.348-9.95c-0.043-0.78-0.174-6.339-0.174-6.339s-1.256-6.996-0.912-6.343
		c1.021,1.934,2.436,1.51,2.436,1.51v-5.049l3.439,1.107L68.8,68.648z"/>
	<path fill="#C9A896" d="M67.191,92.321c0,0,0.262,3.91,0,5.082c-0.26,1.171-0.809,2.303-1.403,2.995
		c-0.594,0.696-1.331,1.087-1.331,1.087s-1.09,1.219-2.434,0.738c-1.346-0.477-1.26-0.649-0.738-0.954
		c0.521-0.304,1.26-0.131,1.391-1.044c0.13-0.913,0.174-2.171,0.174-2.171s-1.043,2.911-1.65,2.911c-0.609,0-1.043,0-0.869-0.912
		c0.174-0.913,0.737-2.725,0.737-2.725s-0.13-1.314,0.087-1.708c0.218-0.389,1.555-2.211,1.999-3.039
		c0.444-0.829,0.646-2.215,0.646-2.215L67.191,92.321z"/>
	<path fill="#ECCFC1" d="M69.126,68.648c0,0,0.874,7.602,0.741,9.773c-0.133,2.173-1.393,8.731-1.611,10.209
		c-0.215,1.477,0.088,2.78,0,3.127c-0.086,0.35-0.736,1.91-0.867,1.954c-0.131,0.043-1.521,0.652-2.347,0
		c-0.824-0.651-1.259-2.431-1.259-2.431s-0.305-9.172-0.348-9.95c-0.044-0.78-0.174-6.339-0.174-6.339s-1.258-6.996-0.912-6.343
		c1.021,1.934,2.434,1.51,2.434,1.51v-5.049l3.441,1.107L69.126,68.648z"/>
	<path fill="#ECCFC1" d="M67.52,92.321c0,0,0.26,3.91,0,5.082c-0.262,1.171-0.811,2.303-1.404,2.995
		c-0.594,0.696-1.334,1.087-1.334,1.087s-1.087,1.219-2.433,0.738c-1.346-0.477-1.259-0.649-0.737-0.954
		c0.521-0.304,1.26-0.131,1.389-1.044c0.132-0.913,0.175-2.171,0.175-2.171s-1.042,2.911-1.65,2.911c-0.609,0-1.042,0-0.869-0.912
		c0.173-0.913,0.739-2.725,0.739-2.725s-0.131-1.314,0.086-1.708c0.217-0.389,1.555-2.211,1.998-3.039
		c0.443-0.829,0.646-2.215,0.646-2.215L67.52,92.321z"/>
	<path fill="#9A1D26" d="M56.377,60.917c0,0,2.051,13.032-7.312,13.378c-9.36,0.349-10.662-7.442-9.272-11.235
		c1.39-3.793,4.574-5.882,6.196-6.705C47.611,55.531,56.377,60.917,56.377,60.917z"/>
	<path fill="#BF2026" d="M56.384,60.508c0,0,1.979,12.373-7.053,12.703c-9.03,0.331-10.288-7.067-8.947-10.668
		c1.341-3.602,4.413-5.585,5.979-6.367C47.928,55.394,56.384,60.508,56.384,60.508z"/>
	<path fill="#BF2026" d="M58.002,42.033l-0.781-1.737c0,0,2.069,0.445,3.805,2.4"/>
	<path fill="#BF2026" d="M48.765,47.138c0,0,5.054-0.936,6.657-2.413s2.513-3.536,2.513-3.536s1.64,0.187,3.428,1.248
		s6.163,6.83,7.413,9.383s2.275,6.088,1.521,13.468s0.021,8.938,0,11.886s-0.866,7.757-0.756,9.915s0.756,5.158,0.756,5.158
		s-2.552,1.299-4.536,1.399s-5.143-1.274-5.143-1.274s2.061-11.822,1.672-14.724s-2.915-17.526-2.915-17.526l-1.007-6.2
		L48.765,47.138z"/>
	<path fill="#9A1D26" d="M59.659,91.81l0.958,0.563c0,0,2.033-14.75,1.971-15.688s-2.5-15.5-2.5-15.5s0.809,14.313,0.529,16.688
		S59.659,91.81,59.659,91.81z"/>
</g>
</svg>
