<?xml version="1.0" encoding="utf-8"?>
<!-- Generator: Adobe Illustrator 16.0.0, SVG Export Plug-In . SVG Version: 6.00 Build 0)  -->
<!DOCTYPE svg PUBLIC "-//W3C//DTD SVG 1.1//EN" "http://www.w3.org/Graphics/SVG/1.1/DTD/svg11.dtd">
<svg version="1.1" id="Layer_1" xmlns="http://www.w3.org/2000/svg" xmlns:xlink="http://www.w3.org/1999/xlink" x="0px" y="0px"
	 width="100px" height="150px" viewBox="0 0 100 150" enable-background="new 0 0 100 150" xml:space="preserve">
<g>
	<path d="M42.263,36.831c0.052,0.41,1.01,6.43,7.986,6.43c6.979,0,8.042-6.672,7.325-7.601c-0.716-0.929-14.754-0.77-15.131-0.328
		C42.066,35.773,42.263,36.831,42.263,36.831z"/>
	<path fill="#3F403F" d="M43.413,113.15c0,0-1.13,8.514-1.172,9.252c-0.044,0.735-0.175,1.821-0.347,2.562
		c-0.176,0.738-0.74,3.864-1.869,3.778c-1.13-0.087-1.747,0-2.132-0.217c-0.387-0.217-1.863-2.39-1.82-3.476
		c0.043-1.085-0.174-2.257,0.737-4.104c0.912-1.847,2.822-4.583,3.302-6.712C40.59,112.107,43.413,113.15,43.413,113.15z"/>
	<path fill="#C9A896" d="M36.213,44.03c0,0-3.355,0.968-4.832,5.05c-1.477,4.084-1.737,5.777-1.737,8.341
		c0,2.562,0.436,4.299,0.479,5.95c0.042,1.65-0.436,7.342,1.432,6.821c1.869-0.523,3.129-1.433,3.825-3.366
		c0.693-1.935,1.606-10.666,1.214-13.141c-0.392-2.476,1.129-6.168,0.999-7.905C37.462,44.042,36.213,44.03,36.213,44.03z"/>
	<path fill="#9A1D26" d="M30.599,62.416c0,0-2.518,7.209-2.127,11.727c0.391,4.518,0.005,7.429-0.042,8.125
		c-0.046,0.692,0.519,1.866,1.214,2.344c0.696,0.479,1.869-1.693,1.998-2.563c0.132-0.868,3.692-9.835,3.738-11.824
		c0.041-1.99-0.002-8.201-2.391-8.201C30.599,62.024,30.599,62.416,30.599,62.416z"/>
	<path fill="#C9A896" d="M31.907,94.905l-3.132-1.475l-1.433-3.433l1.171-8.698l2.825,0.271l-0.176,4.604l0.744,1.347l-0.179,3.3
		c0,0,0.355,2.26,0.179,2.825C31.729,94.209,31.907,94.905,31.907,94.905z"/>
	<path fill="#C9A896" d="M63.341,44.03c0,0,3.354,0.968,4.831,5.05c1.477,4.084,1.738,5.777,1.738,8.341
		c0,2.562-0.437,4.299-0.479,5.95c-0.042,1.65,0.436,7.342-1.433,6.821c-1.867-0.523-3.127-1.433-3.823-3.366
		c-0.693-1.935-1.606-10.666-1.214-13.141c0.39-2.476-1.13-6.168-1.001-7.905C62.09,44.042,63.341,44.03,63.341,44.03z"/>
	<path fill="#C9A896" d="M68.953,62.416c0,0,2.519,7.209,2.129,11.727c-0.392,4.518-0.006,7.429,0.041,8.125
		c0.046,0.692-0.52,1.866-1.213,2.344c-0.696,0.479-1.869-1.693-1.999-2.563c-0.131-0.868-3.691-9.835-3.736-11.824
		c-0.043-1.99,0-8.201,2.39-8.201C68.953,62.024,68.953,62.416,68.953,62.416z"/>
	<path fill="#C9A896" d="M67.646,94.905l3.134-1.475l1.434-3.433L71.039,81.3l-2.825,0.271l0.175,4.604l-0.743,1.347l0.178,3.3
		c0,0-0.355,2.26-0.178,2.825C67.823,94.209,67.646,94.905,67.646,94.905z"/>
	<path fill="#ECCFC1" d="M48.062,41.566c0,0-9.947,1.694-12.249,2.606c-2.304,0.913-1.087,9.644-0.392,10.512
		c0.695,0.869,0.435,5.43,0.652,6.646c0.218,1.216,1.438,8.3,1.347,9.252c-0.174,1.824-3.911,5.386-3.953,11.642
		c-0.043,6.254,12.683,9.989,16.896,9.856c4.214-0.128,8.601-1.083,12.249-4.253c3.649-3.172,3.779-5.56,3.779-5.56
		s-1.521-6.386-2.26-7.95c-0.737-1.564-1.041-4.04-0.65-7.211c0.391-3.17,0.564-9.339,0.825-11.336
		c0.261-1.999,2.128-9.86,0.131-11.12c-1.998-1.259-10.121-3.084-10.121-3.084H48.062z"/>
	<path fill="#C9A896" d="M37.768,43.521c0,0,6.167-2.031,7.339-2.188c1.174-0.157,9.989,0,9.989,0s3.044,1.06,5.563,2.188
		c2.518,1.129,2.172,1.129,2.172,1.129s-10.707,5.604-10.913,5.647c-0.207,0.044,8.068-5.082,8.068-5.082s0.544-0.521,0.673-0.651
		c0.129-0.13-6.108-2.693-6.108-2.693l-9.313,0.348L37.768,43.521z"/>
	<path fill="#C9A896" d="M43.36,38.238c0,0-1.914-1.253-2.189-2.949c-0.278-1.696-0.041-3.592,0.864-2.718"/>
	<polygon fill="#C9A896" points="44.538,40.027 46.907,47.646 45.901,41.61 	"/>
	<path fill="#C9A896" d="M56.303,37.923c0,0,1.914-1.254,2.192-2.949c0.277-1.696,0.041-3.592-0.865-2.718"/>
	<path fill="#C9A896" d="M54.235,42.913c0.304-0.333,1.535-1.759,1.905-2.476c0.369-0.716,0.674-1.77,0.935-3.269
		c0.046-0.267,1.333-3.471,1.279-4.811c0,0,1.631-2.02,1.631-7.037s-5.539-9.187-9.709-9.187h-0.781c-4.17,0-9.71,4.17-9.71,9.187
		s1.63,7.037,1.63,7.037c-0.064,1.629,0.883,3.638,1.422,5.061c0.66,1.737,1.375,3.829,3.129,5.581
		c0.268,0.269,2.258,1.999,4.245,1.999C52.199,44.998,53.928,43.246,54.235,42.913z"/>
	<path fill="#ECCFC1" d="M54.235,42.587c0.304-0.333,1.535-1.759,1.905-2.476c0.369-0.716,0.674-1.769,0.935-3.268
		c0.046-0.267,1.333-3.471,1.279-4.811c0,0,1.631-2.02,1.631-7.037c0-5.017-5.539-9.186-9.709-9.186h-0.781
		c-4.17,0-9.71,4.169-9.71,9.186c0,5.017,1.63,7.037,1.63,7.037c-0.064,1.628,0.883,3.638,1.422,5.06
		c0.66,1.737,1.375,3.829,3.129,5.582c0.268,0.269,2.258,1.999,4.245,1.999C52.199,44.672,53.928,42.92,54.235,42.587z"/>
	<polygon fill="#C9A896" points="52.229,32.813 52.492,31.522 51.917,31.338 55.201,30.655 57.184,30.655 56.043,31.44 
		56.245,32.673 	"/>
	<polygon fill="#C9A896" points="45.222,30.957 44.525,32.673 46.326,31.815 	"/>
	<path d="M51.917,31.338l0.271-0.771c0,0,1.216-0.141,1.465-0.218c0.252-0.076,1.727-0.705,2.694-0.521
		c0.966,0.185,1.227,1.151,1.227,1.151s-1.368-0.435-1.803-0.413C55.338,30.588,51.917,31.338,51.917,31.338z"/>
	<path fill="#C9A896" d="M49.093,31.157c0,0,0.534,2.635,0.534,4.329s-0.719,1.987-0.719,1.987s0.771-4.271-1.229-5.029
		c-1.999-0.758-3.526-1.877-3.526-1.877l1.979-0.327L49.093,31.157z"/>
	<path fill="#AE8468" d="M48.725,38.135c0,0-0.057-0.206,0.357-0.174c0.413,0.033,0.545,0.228,0.545,0.228s-0.166-0.112-0.455-0.116
		C48.886,38.069,48.725,38.135,48.725,38.135z"/>
	<path fill="#AE8468" d="M52.227,38.135c0,0,0.054-0.206-0.358-0.174c-0.411,0.033-0.542,0.228-0.542,0.228s0.164-0.112,0.452-0.116
		C52.065,38.069,52.227,38.135,52.227,38.135z"/>
	<path fill="#B04E41" d="M50.479,41.307c0,0,0.843,0.079,1.298-0.146c0.456-0.223,1.433-1.465,1.433-1.465s-2.495,0.47-2.596,0.481
		c-0.102,0.011-2.764-0.324-2.764-0.324l-0.559-0.112c0,0,1.053,1.085,1.565,1.387C49.372,41.43,50.479,41.307,50.479,41.307z"/>
	<path fill="#662D23" d="M47.291,39.741c0,0,2.124-0.101,2.506,0c0.381,0.101,0.637,0.179,0.637,0.179s0.313-0.201,0.739-0.224
		c0.424-0.022,2.036,0,2.036,0s-0.727,0.448-1.163,0.537c-0.438,0.089-2.508,0.212-3.123,0.067
		C48.309,40.155,47.291,39.741,47.291,39.741z"/>
	<path d="M57.715,24.608c1.116,1.229,0.599,5.052,0.619,6.07s-0.619,4.605-0.619,4.605l1.03-2.308c0,0,3.006-1.095,3.006-8.952
		c0-4.892-3.188-10.895-13.336-10.333c-10.147,0.562-9.655,10.975-9.361,13.943c0.293,2.968,1.499,4.611,1.797,5.228
		c0.301,0.616,1.25,2.323,1.25,2.323s0.08-1.398-0.034-1.672c-0.113-0.273-0.146-0.965,0-1.44s0.538-4.006,0.701-5.534
		c0.162-1.526,0.146-2.68,0.651-3.53c0.505-0.85,2.413-0.707,2.413-0.707s-0.49-1.253-0.312-0.864s1.11,0.821,1.11,0.821
		s-0.721-1.772-0.039-0.36c0.681,1.412,4.076,1.945,4.076,1.945s3.441-0.753,4.076-1.867c0.636-1.115-0.233,0.556-0.233,0.556
		l1.039-0.327l-0.452,0.634c0,0,1.217,0.077,1.761,0.692C57.4,24.146,57.715,24.608,57.715,24.608z"/>
	<path d="M47.066,15.581c0,0-1.341-3.258,2.105-4.072c3.451-0.815,6.241-0.196,7.029,0c0.785,0.195,3.066,1.14,4.076,3.583
		c1.011,2.444,1.401,3.843,2.151,4.3c0.747,0.457,1.792,0.554,2.28,0.457c0.488-0.098,0.847-0.293,0.847-0.293s-0.128,1.01-1.4,1.01
		c0,0-1.955-0.033-3.485-0.815C59.138,18.969,47.066,15.581,47.066,15.581z"/>
	<path d="M50.798,12.584c0,0-1.171-1.825,0.881-2.606c2.051-0.782,4.169-1.857,6.547,0.357c2.378,2.216,2.149,5.195,4.463,5.497
		c2.313,0.303,1.791-2.597,1.791-2.597s1.599,4.528-0.717,4.528c-2.312,0-4.397-0.261-4.43-0.359L50.798,12.584z"/>
	<path d="M49.154,31.338l-0.272-0.771c0,0-1.216-0.141-1.465-0.218c-0.249-0.076-1.726-0.705-2.693-0.521
		c-0.966,0.185-1.227,1.151-1.227,1.151s1.368-0.435,1.803-0.413S49.154,31.338,49.154,31.338z"/>
	<g>
		<path d="M52.318,32.546c0,0,0.615-1.281,2.063-1.281c1.447,0,2.071,1.217,2.071,1.217L52.318,32.546z"/>
		<path fill="#C9A896" d="M51.986,33.087c0,0,0.478-0.193,0.928-0.117c0.45,0.076,0.508,0.695,1.424,0.695
			c0.919,0,1.066-0.608,1.414-0.608c0.351,0,0.387,0.036,0.387,0.036l-0.217-0.547l-2.838-0.388L51.986,33.087z"/>
		<path fill="#AD7368" d="M51.986,33.087c0,0,0.8-1.734,2.396-1.734c1.592,0,2.313,1.564,2.313,1.564l-0.556,0.176l-0.585-0.407
			L53.2,32.654l-0.566,0.07l-0.298,0.222L51.986,33.087z"/>
		<path d="M55.87,32.824l0.689,0.019c0,0-0.229-0.035-0.421-0.158c-0.194-0.123-0.346-0.854-1.706-0.854s-2.097,1.098-2.097,1.098
			s1.307-0.801,2.132-0.707c0.827,0.095,1.387,0.546,1.453,0.638C55.986,32.953,55.87,32.824,55.87,32.824z"/>
		<g>
			<path opacity="0.25" d="M52.336,32.929c0,0,0.957-0.993,2.125-0.981c1.169,0.012,1.678,1.145,1.678,1.145l-0.423-0.276
				c0,0-0.225,0.417-1.177,0.417c-0.954,0-0.831-0.304-1.368-0.391C52.635,32.754,52.336,32.929,52.336,32.929z"/>
			<path opacity="0.25" fill="#F9F9FA" d="M52.806,32.716c0,0,0.487-0.68,1.655-0.68c0.988,0,1.291,0.707,1.291,0.707l-0.081,0.03
				c0,0-0.18,0.367-1.132,0.367c-0.954,0-0.79-0.326-1.332-0.367C52.983,32.755,52.806,32.716,52.806,32.716z"/>
			<path fill="#FFFFFF" d="M54.461,32.036c-1.168,0-1.655,0.68-1.655,0.68s0.178,0.039,0.401,0.056
				c0.542,0.041,0.378,0.367,1.332,0.367c0.952,0,1.132-0.367,1.132-0.367l0.081-0.03C55.752,32.742,55.449,32.036,54.461,32.036z"
				/>
			<path fill="#4C301D" d="M53.81,32.081c0,0-0.275,0.889,0.618,0.889c0.893,0,0.634-0.889,0.634-0.889s-0.297-0.087-0.604-0.087
				C54.151,31.994,53.81,32.081,53.81,32.081z"/>
			<path d="M54.461,31.948c-1.168-0.012-2.125,0.981-2.125,0.981s0.299-0.175,0.835-0.087c0.537,0.087,0.414,0.391,1.368,0.391
				c0.952,0,1.177-0.417,1.177-0.417l0.423,0.276C56.139,33.093,55.63,31.96,54.461,31.948z M55.671,32.772
				c0,0-0.18,0.367-1.132,0.367c-0.954,0-0.79-0.326-1.332-0.367c-0.224-0.017-0.401-0.056-0.401-0.056s0.487-0.68,1.655-0.68
				c0.988,0,1.291,0.707,1.291,0.707L55.671,32.772z"/>
		</g>
		<circle cx="54.433" cy="32.344" r="0.341"/>
		<path d="M48.358,32.546c0,0-0.614-1.281-2.062-1.281c-1.449,0-2.074,1.217-2.074,1.217L48.358,32.546z"/>
		<path fill="#C9A896" d="M48.689,33.087c0,0-0.479-0.193-0.929-0.117c-0.449,0.076-0.507,0.695-1.424,0.695
			s-1.066-0.608-1.414-0.608c-0.349,0-0.385,0.036-0.385,0.036l0.215-0.547l2.84-0.388L48.689,33.087z"/>
		<path fill="#AD7368" d="M48.689,33.087c0,0-0.799-1.734-2.393-1.734c-1.596,0-2.313,1.564-2.313,1.564l0.555,0.176l0.583-0.407
			l2.354-0.031l0.568,0.07l0.296,0.222L48.689,33.087z"/>
		<path d="M44.806,32.824l-0.69,0.019c0,0,0.229-0.035,0.423-0.158c0.193-0.123,0.345-0.854,1.704-0.854
			c1.361,0,2.097,1.098,2.097,1.098s-1.304-0.801-2.132-0.707c-0.825,0.095-1.386,0.546-1.452,0.638
			C44.69,32.953,44.806,32.824,44.806,32.824z"/>
		<g>
			<path opacity="0.25" d="M48.339,32.929c0,0-0.957-0.993-2.125-0.981s-1.676,1.145-1.676,1.145l0.423-0.276
				c0,0,0.226,0.417,1.176,0.417c0.953,0,0.831-0.304,1.367-0.391C48.042,32.754,48.339,32.929,48.339,32.929z"/>
			<path opacity="0.25" fill="#F9F9FA" d="M47.869,32.716c0,0-0.487-0.68-1.655-0.68c-0.986,0-1.291,0.707-1.291,0.707l0.082,0.03
				c0,0,0.182,0.367,1.132,0.367c0.953,0,0.79-0.326,1.332-0.367C47.691,32.755,47.869,32.716,47.869,32.716z"/>
			<path fill="#FFFFFF" d="M46.214,32.036c1.168,0,1.655,0.68,1.655,0.68s-0.178,0.039-0.4,0.056
				c-0.542,0.041-0.379,0.367-1.332,0.367c-0.95,0-1.132-0.367-1.132-0.367l-0.082-0.03C44.923,32.742,45.228,32.036,46.214,32.036z
				"/>
			<path fill="#4C301D" d="M46.866,32.081c0,0,0.276,0.889-0.616,0.889c-0.895,0-0.637-0.889-0.637-0.889s0.299-0.087,0.604-0.087
				C46.526,31.994,46.866,32.081,46.866,32.081z"/>
			<path d="M44.538,33.093l0.423-0.276c0,0,0.226,0.417,1.176,0.417c0.953,0,0.831-0.304,1.367-0.391
				c0.538-0.087,0.835,0.087,0.835,0.087s-0.957-0.993-2.125-0.981S44.538,33.093,44.538,33.093z M44.923,32.742
				c0,0,0.305-0.707,1.291-0.707c1.168,0,1.655,0.68,1.655,0.68s-0.178,0.039-0.4,0.056c-0.542,0.041-0.379,0.367-1.332,0.367
				c-0.95,0-1.132-0.367-1.132-0.367L44.923,32.742z"/>
		</g>
		<circle cx="46.243" cy="32.344" r="0.342"/>
	</g>
	<path fill="#C9A896" d="M50.344,51.513c0.15-0.261,1.886-4.864,1.886-4.864l-0.903,3.474L50.344,51.513z"/>
	<polygon fill="#C9A896" points="48.062,50.297 39.785,44.998 44.223,48.56 	"/>
	<path fill="#ECCFC1" d="M34.38,81.3"/>
	<path fill="#3F403F" d="M38.896,102.377c0,0-1.085,3.952-0.999,5.906c0.088,1.956,1.651,6.039,1.564,7.253
		c-0.087,1.218,1.218,2.304,2.151,1.739c0.932-0.563,1.106-0.955,1.845-2.997c0.738-2.04,3.778-8.382,3.994-9.382
		c0.219-0.999-0.91-4.038-3.212-3.866C41.937,101.205,38.896,102.377,38.896,102.377z"/>
	<path fill="#3F403F" d="M50.028,90.822c0,0-0.099,9.773-2.446,12.771c-2.345,2.997-5.473,3.3-7.47,2.087
		c-1.998-1.218-3.415-6.387-4.727-9.123c-1.31-2.736-1.701-3.994-2.093-6.689c-0.391-2.692,0.521-8.209,0.521-8.209L50.028,90.822z"
		/>
	<path fill="#3F403F" d="M56.643,113.15c0,0,1.131,8.514,1.173,9.252c0.044,0.735,0.175,1.821,0.347,2.562
		c0.175,0.738,0.739,3.864,1.868,3.778c1.131-0.087,1.748,0,2.134-0.217c0.388-0.217,1.864-2.39,1.819-3.476
		c-0.043-1.085,0.174-2.257-0.737-4.104c-0.913-1.847-2.824-4.583-3.302-6.712C59.466,112.107,56.643,113.15,56.643,113.15z"/>
	<path fill="#3F403F" d="M61.161,102.377c0,0,1.085,3.952,0.998,5.906c-0.085,1.956-1.65,6.039-1.563,7.253
		c0.087,1.218-1.218,2.304-2.15,1.739c-0.934-0.563-1.106-0.955-1.846-2.997c-0.738-2.04-3.777-8.382-3.996-9.382
		c-0.217-0.999,0.912-4.038,3.215-3.866C58.119,101.205,61.161,102.377,61.161,102.377z"/>
	<path fill="#3F403F" d="M50.028,90.822c0,0,0.099,9.773,2.444,12.771s5.475,3.3,7.472,2.087c1.998-1.218,3.415-6.387,4.727-9.123
		s1.702-3.994,2.093-6.689c0.393-2.692-0.521-8.209-0.521-8.209L50.028,90.822z"/>
	<path fill="#ECCFC1" d="M35.386,44.729c0,0-4.373,3.657-4.112,11.649c0.262,7.993,0.063,6.78,0.684,7.039
		c0.619,0.258,3.592-8.232,4.115-8.982C36.594,53.685,35.386,44.729,35.386,44.729z"/>
	<path fill="#ECCFC1" d="M63.984,54.435c0,0,2.585,5.363,2.876,7.041c0.292,1.678-0.284,1.694,0.785,1.947
		c1.069,0.252,1.853-6.176,0.983-9.347c-0.868-3.17-4.191-9.425-4.191-9.425L63.984,54.435z"/>
	<path fill="#C9A896" d="M50.575,91.19c1.418-0.193,10.726-6.741,10.726-6.741s-9.849,6.59-11.272,6.373
		c-0.665-0.103-3.806-1.449-6.549-3.128c-3.14-1.918-5.88-4.189-5.88-4.189s2.525,2.547,5.445,4.539
		c2.673,1.821,5.742,3.099,6.146,3.146C50.039,91.296,50.575,91.19,50.575,91.19z"/>
	<path fill="#C9A896" d="M48.474,82.821c0,0,0.68-0.49,1.317-0.554c0.637-0.064,1.289,0.554,1.289,0.554s-0.806-0.397-1.15-0.28
		C49.582,82.657,48.474,82.821,48.474,82.821z"/>
	<path fill="#9A1D26" d="M68.306,48.605c0,0,1.103,3.217,1.599,6.755c0.496,3.536-0.92,4.049,0.006,8.006
		c0.924,3.957,1.705,7.475,1.705,9.236c0,1.758-0.26,6.016,0,8.361c0.261,2.345,1.043,4.091,1.043,4.091s-0.47,1.553-2.754,1.208
		c-2.285-0.348-3.974-0.783-3.974-0.783s0.482-6.161,0-7.64c-0.482-1.48-2.138-5.118-1.946-6.366
		c0.19-1.25-1.139-13.761-1.139-13.761s0.734-7.85,1.712-8.502C65.534,48.56,68.306,48.605,68.306,48.605z"/>
	<path fill="#BF2026" d="M48.062,50.297c0,0,7.536,0.261,9.702-1.086c2.168-1.347,4.189-5.582,4.189-5.582l-0.652-0.218l0.652-0.151
		c0,0,3.581,1.064,5.211,3.389c1.628,2.323,1.732,3.206,0.865,5.664c-0.865,2.458-3.862,6.411-3.862,6.411s-0.233,1.661-0.183,2.438
		c0.051,0.776-0.721,11.29-0.216,12.192c0.789,1.411,2.163,5.466,2.725,9.468c0.567,4.036-0.182,11.085-0.179,12.084
		c0.002,0.999,0.546,2.736,0.546,2.736s-1.935,2.238-6.017,2.249c-4.083,0.011-6.061-0.658-9.764-0.804
		c-3.702-0.141-5.616,2.727-8.395,2.638c-2.778-0.086-10.075-2.789-10.075-2.789s0.824-5.812,0.585-8.33
		c-0.237-2.52,0.525-13.891,1.817-15.511c1.392-1.744-0.975-7.776-0.633-9.186c0.342-1.412,3.22-9.443,3.22-9.443L48.062,50.297z"/>
	<path fill="#BF2026" d="M68.491,49.211c0,0-2.415,9.157-1.631,11.685c0.785,2.527,0.241,4.257,0.892,3.909
		c0.65-0.347,1.503-5.886,1.25-7.677C68.749,55.335,68.491,49.211,68.491,49.211"/>
	<path fill="#BF2026" d="M64.558,56.031"/>
	<path fill="#BF2026" d="M37.894,59.197c0,0-6.741,9.746-1.555,13.67c5.186,3.925,9.348,1.211,10.568,0
		c1.22-1.212,3.521-4.412,2.72-7.947c-0.806-3.535-3.64-6.397-5.089-7.07C43.089,57.177,37.894,59.197,37.894,59.197z"/>
	<path fill="#BF2026" d="M61.956,59.197c0,0,6.74,9.746,1.554,13.67c-5.187,3.925-9.35,1.211-10.567,0
		c-1.22-1.212-3.521-4.412-2.721-7.947c0.805-3.535,3.64-6.397,5.089-7.07C56.761,57.177,61.956,59.197,61.956,59.197z"/>
	<path fill="#4891CE" d="M64.167,58.221c0,0-21.884-11.219-22.839-11.986c-0.955-0.766-1.327-3.703-0.267-3.899
		c1.059-0.197-4.847,1.065-6.279,1.961c-1.435,0.897-4.802,4.935-5.139,8.194c-0.334,3.258-0.054,9.688,0.007,11.271
		c0.06,1.584-1.906,7.82-1.972,9.123c-0.063,1.302-0.349,11.317-0.336,12.595c0.013,1.281,2.228,3.173,5.485,3.173
		s5.602-2.021,5.602-2.021s-5.041-18.254-4.05-21.148c0.989-2.894,1.486-4.156,3.388-6.099c1.9-1.942,3.699-0.77,6.156-1.095
		c2.455-0.327,14.535-0.293,16.062,0.223c1.523,0.518,3.857,1.405,4.182,1.666c0.326,0.261,0.391-1.825,0.391-1.825L64.167,58.221z"
		/>
	<ellipse fill="#9A1D26" cx="41.612" cy="67.287" rx="7.87" ry="7.478"/>
	<ellipse fill="#9A1D26" cx="58.445" cy="67.287" rx="7.87" ry="7.478"/>
	<ellipse fill="#BF2026" cx="58.445" cy="66.471" rx="7.87" ry="7.478"/>
	<ellipse fill="#BF2026" cx="41.612" cy="66.471" rx="7.87" ry="7.478"/>
</g>
</svg>
