<?xml version="1.0" encoding="utf-8"?>
<!-- Generator: Adobe Illustrator 16.0.0, SVG Export Plug-In . SVG Version: 6.00 Build 0)  -->
<!DOCTYPE svg PUBLIC "-//W3C//DTD SVG 1.1//EN" "http://www.w3.org/Graphics/SVG/1.1/DTD/svg11.dtd">
<svg version="1.1" id="Layer_1" xmlns="http://www.w3.org/2000/svg" xmlns:xlink="http://www.w3.org/1999/xlink" x="0px" y="0px"
	 width="100px" height="150px" viewBox="0 0 100 150" enable-background="new 0 0 100 150" xml:space="preserve">
<g>
	<path fill="#3F403F" d="M41.331,116.818c0,0-1.086,2.389-1.26,3.346c-0.174,0.955,0.824,2.824,0.912,3.476
		c0.086,0.65,0.694,4.864,1.042,5.43c0.348,0.563,2.259,2.257,2.39,2.257c0.13,0,1.563,1.782,3.171,0.956
		c1.606-0.824,2.389-0.912,2.258-1.911c-0.13-0.999-3.475-7.035-3.866-8.253c-0.39-1.216-0.521-4.82-0.521-4.82
		s-2.258-1.042-2.822-0.869C42.069,116.603,41.331,116.818,41.331,116.818z"/>
	<path fill="#3F403F" d="M48.715,108.089c0,0-2.954,7.514-2.954,8.514s-0.305,4.3-1.65,4.647c-1.346,0.347-2.779-3.084-3.258-4.3
		c-0.478-1.216-1.303-3.259-1.433-4.907c-0.13-1.651-0.271-3.693,0.689-5.474c0.96-1.781,0.743-4.822,0.743-4.822
		s8.123,2.085,8.21,3.778C49.148,107.221,48.715,108.089,48.715,108.089z"/>
	<path fill="#3F403F" d="M52.711,87.761c0.609,0.826,1.563,5.603,0.826,9.947c-0.738,4.343-2.954,10.642-4.995,11.38
		c-2.043,0.739-7.232-4.688-7.993-6.428c-0.761-1.742-4.087-10.425-3.735-14.161c0.351-3.735,0.738-6.559,0.738-6.559
		s5.038,0.435,8.687,1.954C49.888,85.416,52.711,87.761,52.711,87.761z"/>
	<path fill="#3F489E" d="M47.434,38.796c0,0-8.304-0.161-11.491,8.678s11.732,1.194,12.45,0
		C49.108,46.279,47.434,38.796,47.434,38.796z"/>
	<path fill="#303030" d="M67.211,78.422c0,0-1.773,13.924-4.705,17.93s-4.495,4.136-6.124,3.745c-1.63-0.392-4.181-2.02-4.925-5.604
		c-0.744-3.582,0.297-7.688,1.602-9.055C54.362,84.069,67.211,78.422,67.211,78.422z"/>
	<path fill="#303030" d="M62.114,96.352c0,0-2.558,10.195-2.94,11.629c-0.382,1.433-0.643,2.476-1.555,2.737
		c-0.912,0.261-2.77-1.5-2.898-2.705c-0.132-1.206-0.554-3.03-0.781-3.876c-0.23-0.847-1.14-4.452-1.044-5.376
		c0.097-0.924,0.392-2.117,0.488-2.183S62.114,96.352,62.114,96.352z"/>
	<path fill="#303030" d="M58.759,107.947c0,0,0.815,2.34,1.107,2.542c0.294,0.203,3.975,2.216,4.333,2.671s2.085,2.541,1.728,3.42
		c-0.359,0.881-1.564,1.955-1.693,2.15c-0.131,0.195-0.164,0.586-0.945,0.423c-0.782-0.162-5.766-4.977-6.256-5.583
		c-0.488-0.604-2.833-2.592-2.605-3.505c0.229-0.913,0.359-2.347,0.749-2.477C55.566,107.458,58.759,107.947,58.759,107.947z"/>
	<path fill="#C9A896" d="M67.522,64.783c0,0,1.826,10.511,2.345,11.033c0.521,0.521,1.087,3.474,1.087,3.474l-0.261,2.911
		l-2.172,2.302h-1.649c0,0-0.739-1.955-0.609-2.172c0.131-0.217,1.693-1.954,1.693-1.954l-1.084-3.476l-3.346-10.38L67.522,64.783z"
		/>
	<path fill="#9A1D26" d="M67.938,64.783c0,0,0.694,5.403,1.129,6.59c0.435,1.185,1.887,4.05,1.887,4.05l-4.979,2.998l-1.773-9.773
		L67.938,64.783z"/>
	<path fill="#9A1D26" d="M67.623,78.422c0,0-0.011,7.791,0.445,10.4c0.457,2.609,1.599,3.717,1.599,3.717s-1.556,0.912-2.456,0.912
		c-0.902,0-1.423,0.32-2.466,0.844c-1.041,0.524-1.489,0.458-1.489,0.458V81.139L67.623,78.422z"/>
	<path fill="#9A1D26" d="M58.39,38.227c0,0,3.834,0.668,4.399,1.863c0.564,1.194,1.086,3.409,1.345,4.93
		c0.263,1.52,1,10.164,1,10.164s-4.62-3.518-4.982-4.256c-0.36-0.739-2.775-8.731-2.654-9.947
		C57.619,39.764,58.39,38.227,58.39,38.227z"/>
	<path fill="#ECCFC1" d="M58.932,38.239l-8.957-0.327l-3.909-1.993l0.434,1.993c0,0-2.779,2.471-3.397,2.895
		c-0.62,0.423-3.942,2.172-4.235,2.551c-0.293,0.38-4.278,7.439-3.236,11.218c1.043,3.779,4.301,12.857,4.604,13.726
		c0.305,0.869,0.088,2.563-0.086,3.388c-0.174,0.826-2.475,6.821-2.822,8.644c-0.349,1.824,0.217,8.209,4.517,9.426
		c2.651,0.751,12.289-0.807,18.764-4.214c4.024-2.115,6.59-6.085,6.605-7.123c0.03-2.042-2.208-7.264-2.077-8.61
		c0.054-0.554,2.13-1.168,2.074-4.898c-0.078-5.33-1.666-11.86-2.867-14.595C62.301,45.672,58.932,38.239,58.932,38.239z"/>
	<path fill="#C9A896" d="M55.621,40.915h-0.37c0,0-0.737,1.802-0.606,3.302c0.129,1.498,0.185,2.411,0.185,2.411
		s1.966-2.693,2.096-3.562c0.128-0.87,0.717-2.976,0.717-2.976"/>
	<path fill="#C9A896" d="M44.979,36.593c0,0,2.28,6.363,3.127,7.275c0.847,0.913,5.343,3.606,5.343,3.606s-4.191-4.018-4.734-4.931
		c-0.543-0.912-2.737-5.95-2.737-5.95"/>
	<path d="M61.887,18.133c0,0,1.271,1.4,1.043,3.388c-0.229,1.987,0.358,2.411-1.043,2.964c-1.401,0.554-2.357,0.62-2.357,0.62
		s-3.733-3.729-3.733-4.138c-0.002-0.409,2.732-3.681,2.732-3.681L61.887,18.133z"/>
	<path fill="#BF2026" d="M65.134,52.504c0,0,0.763,1.643,1.46,2.177c0.698,0.535,4.776,4.097,3.755,8.25
		c-1.02,4.154-4.693,5.351-4.756,6.88c-0.063,1.53,2.367,8.356,2.109,9.748c-0.258,1.391-3.576,15.294-3.217,15.989
		c0.358,0.694-1.757-0.378-5.275,0c-3.521,0.379-4.119,5.986-10.639,6.786c-6.521,0.802-9.549-1.506-10.901-2.567
		s-3.792-22.346-3.354-27.253c0.438-4.908,4.4-18.423,7.719-20.874c3.317-2.452,6.62-3.32,8.022-4.013
		c1.402-0.692,5.873-2.134,6.869-4.27c0.994-2.135,0.575-5.131,0.575-5.131l1.403,0.017l4.039,7.906L65.134,52.504z"/>
	<path d="M39.376,26.712c0,0,1.563,6.267,2.085,6.809c0.521,0.542,1.401,1.324,1.563,1.552c0.163,0.228,0.945,1.752,0.912,2.13
		c-0.033,0.379,0.424,1.127-0.357,1.096c-0.783-0.033-1.694-0.717-1.694-0.815c0-0.097,0.064-0.608,0.064-0.608
		s-0.618,0.413-0.488,0.901s1.434,1.466,1.531,1.499c0.097,0.033,1.173,0.685,1.368,0.586c0.195-0.098,1.107-0.456,1.271-0.717
		c0.162-0.261,0.78-1.466,0.78-1.466l-0.193-2.036l-1.892-2.755l-0.912-2.035L39.376,26.712z"/>
	<path fill="#C9A896" d="M60.005,21.384c0.562,1.401,1.174,4.984,0.978,5.44c-0.195,0.456-0.781,1.238-0.781,1.531
		c0,0.293,0.391,1.466,0.457,1.857c0.064,0.391,0.129,3.063-0.294,3.747c-0.424,0.685-1.271,3.649-1.271,3.844
		s-0.163,3.063-1.174,3.42c-1.01,0.358-3.452,0.814-5.732-0.228s-3.682-1.857-4.563-3.323c-0.131-0.22-0.289-0.495-0.462-0.802
		c-0.978-1.741-2.437-4.541-2.437-4.541s-2.411-0.847-3.519-2.345c-1.107-1.498-3.681-8.535-0.357-12.607
		c3.322-4.072,8.031-3.198,10.618-2.949C54.176,14.688,57.66,15.52,60.005,21.384z"/>
	<path fill="#ECCFC1" d="M60.005,20.936c0.562,1.4,1.174,4.984,0.978,5.439c-0.195,0.457-0.781,1.238-0.781,1.532
		c0,0.292,0.391,1.466,0.457,1.857c0.064,0.391,0.129,3.062-0.294,3.746c-0.424,0.684-1.271,3.648-1.271,3.844
		s-0.163,3.063-1.174,3.421c-1.01,0.358-3.452,0.814-5.732-0.228c-2.28-1.043-3.682-1.857-4.563-3.324
		c-0.131-0.22-0.289-0.494-0.462-0.802c-0.978-1.741-2.437-4.541-2.437-4.541s-2.411-0.847-3.519-2.346
		c-1.107-1.498-3.681-8.535-0.357-12.607c3.322-4.072,8.031-3.199,10.618-2.949C54.176,14.24,57.66,15.071,60.005,20.936z"/>
	<path fill="#C9A896" d="M50.115,29.991c0,0,1.639-0.286,1.836-0.176c0.195,0.111,0.641,0.441,0.641,0.441l2.963,0.025l0.534,0.709
		l0.487-0.436h0.131c0,0,0.013,0.375,0.098,0c0.085-0.376,0.061-0.542,0.061-0.542l-0.158-1.479l-2.638-0.219l-1.743,0.488
		L50.115,29.991z"/>
	<path fill="#AD7368" d="M56.089,30.991c0,0-0.623-1.945-1.543-1.896c-0.918,0.049-2.91,1.854-2.91,1.854L51.3,31.261
		c0,0,1.996-0.455,2.644-0.569c0.646-0.115,1.281-0.212,1.281-0.212L56.089,30.991z"/>
	<path fill="#C9A896" d="M51.3,31.261c0,0,1.599,1.156,2.591,0.879s2.15-1.288,2.15-1.288l-0.598-0.243L51.3,31.261z"/>
	<path fill="#FFFFFF" d="M53.487,30.469c-0.399,0.22-1.161,0.784-1.161,0.784l0.473,0.074c0,0,0.387,0.315,1.311,0.252
		c0.553-0.038,0.88-0.806,0.88-0.806l0.316-0.196l-0.694-0.292C54.611,30.284,53.886,30.248,53.487,30.469z"/>
	<path fill="#4C301D" d="M53.548,30.43c0,0,0.146,1.002,0.907,0.867c0.659-0.116,0.493-1.063,0.493-1.063L53.548,30.43z"/>
	<path d="M55.543,30.496c-0.081-0.114-0.816-0.38-0.997-0.364c-0.179,0.017-1.048,0.184-1.698,0.478
		c-0.653,0.293-1.212,0.532-1.212,0.532s0.152,0.086,0.69,0.315c0.322,0.137,1.116,0.456,1.913,0.228
		c0.798-0.228,1.01-0.912,1.01-0.912l0.359-0.057C55.608,30.716,55.624,30.61,55.543,30.496z M54.989,30.773
		c0,0-0.327,0.764-0.88,0.806c-0.822,0.063-1.311-0.252-1.311-0.252l-0.473-0.074c0.836-0.561,0.805-0.521,1.172-0.725
		c0.399-0.22,0.72-0.152,1.048-0.168c0.329-0.016,0.76,0.217,0.76,0.217L54.989,30.773z"/>
	<path d="M54.796,30.773"/>
	<path d="M53.891,30.388c0,0,0.129,0.465,0.56,0.465c0.283,0,0.279-0.596,0.279-0.596h-0.341l-0.387,0.066"/>
	<path d="M58.576,29.404"/>
	<path fill="#C9A896" d="M60.23,29.21c0,0-0.013,0.742-0.326,0.802c-0.313,0.06-1.515-0.488-1.515-0.488L60.23,29.21z"/>
	<path fill="#AD7368" d="M60.491,28.427c0,0-0.313-1.032-0.58-0.966c-0.559,0.135-1.401,1.259-1.521,1.943"/>
	<path fill="#FFFFFF" d="M59.484,28.688c-0.167,0.089-0.871,0.745-0.871,0.745s0.211,0.049,0.411,0.077
		c0.2,0.029,0.501,0.021,0.717-0.077c0.217-0.098,0.347-0.404,0.391-0.578c0.045-0.175,0-0.322,0-0.322S59.651,28.598,59.484,28.688
		z"/>
	<path fill="#4C301D" d="M59.268,28.69c0,0-0.068,0.195-0.027,0.387c0.04,0.191,0.17,0.346,0.352,0.313
		c0.178-0.033,0.482-0.155,0.5-0.631c0.017-0.477-0.143-0.407-0.143-0.407L59.268,28.69z"/>
	<path d="M59.533,28.601c0,0-0.097,0.135-0.081,0.271s0.118,0.303,0.228,0.262s0.232-0.089,0.225-0.379
		c-0.009-0.289-0.115-0.293-0.115-0.293L59.533,28.601z"/>
	<path d="M60.67,28.481c0,0-0.662-0.228-1.063-0.152c-0.402,0.076-1.217,1.075-1.217,1.075v0.184
		c0.228,0.012,0.284,0.03,0.599,0.049c0.357,0.022,0.803,0.093,0.999-0.059c0.195-0.152,0.357-0.662,0.357-0.662l-0.122,0.018
		c0.012-0.108,0.003-0.245-0.005-0.338l0.226-0.048L60.67,28.481z M60.132,28.855c-0.044,0.174-0.174,0.48-0.391,0.578
		c-0.216,0.098-0.517,0.105-0.717,0.077c-0.2-0.028-0.411-0.077-0.411-0.077s0.704-0.656,0.871-0.745
		c0.167-0.09,0.647-0.155,0.647-0.155S60.177,28.68,60.132,28.855z"/>
	<path d="M51.951,30.61c0,0,1.912-1.479,2.52-1.582c0.607-0.102,1.084,0.791,1.084,0.791s-0.662-0.682-0.943-0.608
		C54.328,29.285,51.951,30.61,51.951,30.61z"/>
	<path d="M59.129,28.048c0,0,0.456-0.642,0.782-0.587c0.325,0.055,0.368,0.358,0.368,0.358s-0.249-0.283-0.368-0.271
		C59.791,27.559,59.129,28.048,59.129,28.048z"/>
	<path d="M58.842,28.048l0.541-1.021c0,0,0.827-0.504,1.039-0.978c0.211-0.472,0.5-0.671,0.5-0.671l0.099,0.9L58.842,28.048z"/>
	<path d="M56.805,28.801l-0.114-0.619c0,0-1.806-0.26-2.435-0.342c-0.628-0.081-1.523,0.196-1.93,0.391
		c-0.409,0.196-2.158,1.548-2.211,1.76c-0.054,0.211,2.226-1.222,2.764-1.353c0.539-0.129,1.679-0.195,2.15-0.106
		C55.502,28.622,56.805,28.801,56.805,28.801z"/>
	<path fill="#C9A896" d="M56.707,28.872c0,0,1.157,4.425,1.352,4.865c0.196,0.439,0.228,0.83,0.228,0.83s-0.796-0.798-1.579-0.423
		c0,0,0.88-0.603,0.651-1.336C57.131,32.076,56.707,28.872,56.707,28.872z"/>
	<path fill="#C9A896" d="M58.39,30.131c0,0,0.638,1.83,0.837,2.205c0.201,0.375,0.747,1.662,0.678,2.052
		c-0.069,0.391-0.835,1.01-1.063,0.994c-0.229-0.016-0.49-0.179-0.865-0.065c-0.373,0.114-0.829,0.326-0.829,0.326
		s0.357-0.57,0.749-0.619c0.39-0.049,0.684,0.228,0.945,0.179c0.26-0.049,0.733-0.362,0.862-0.847
		C59.833,33.871,58.39,30.131,58.39,30.131z"/>
	<path fill="#B04E41" d="M54.829,37.907c0,0,1.316,0.473,1.952,0.733c0.635,0.261,1.352,0.146,1.597,0
		c0.244-0.146,0.634-0.765,0.561-1.197c-0.073-0.431-0.146-0.374-0.146-0.374l-1.082,0.456c0,0-0.603,0.106-0.629,0.106
		c-0.023,0-1.4,0.196-1.4,0.196L54.829,37.907z"/>
	<path fill="#662D23" d="M54.829,37.907c0,0,1.247-0.163,1.878-0.478c0.63-0.314,0.88-0.466,1.261-0.554
		c0.378-0.086,0.499,0.098,0.499,0.098s0.281-0.456,0.456-0.478c0.173-0.021,0.097,0.565-0.056,0.706
		c-0.15,0.141-0.043,0.293-0.706,0.424c-0.662,0.13-2.095,0.271-2.389,0.282C55.48,37.918,54.829,37.907,54.829,37.907z"/>
	<path fill="#C9A896" d="M47.434,36.875c0,0-1.086-0.173-1.673-0.478c-0.586-0.304-1.606-0.455-2.193-1.085
		c-0.586-0.63-4.224-3.493-1.978-4.884c1.456-0.903,3.02,0.834,3.02,0.834"/>
	<path d="M62.083,15.722c0,0,0.568,1.915,0,2.997c-1.063,2.021-3.189,2.753-8.192,2.821c-5.003,0.067-6.457-1.583-6.457-1.583
		l0.446,0.649c0,0,1.367,2.478,1.205,4.498c-0.164,2.019-0.164,3.068-0.979,3.814c-0.813,0.747-1.368,1.636-1.368,1.636
		s0.392,1.554,0,1.846c-0.391,0.293-0.88,1.043-1.498,0.814c-0.619-0.228-4.594-1.091-5.571-3.542
		c-0.977-2.451-1.368-3.526-1.693-5.872c-0.326-2.345-0.293-3.323,0.455-5.603c0.75-2.281,3.193-5.539,6.321-7.005
		c3.128-1.466,8.371-1.433,10.554-0.26c2.185,1.173,5.213,2.606,5.572,2.671c0.357,0.066,0.618,0.358,0.944,0.978
		C62.148,15.2,62.083,15.722,62.083,15.722z"/>
	<path d="M42.438,13.735c0,0-1.467-1.303,0-3.16c1.465-1.856,1.987-3.551,4.594-3.778c2.605-0.229,2.084,0.521,2.574,0
		c0.486-0.522,2.198-1.923,4.063-1.434c1.866,0.488,2.941,4.593,3.479,4.528c0.536-0.065,1.026-0.393,1.026-0.393
		s-0.555,0.817-1.026,0.817c-0.473,0-2.418-2.215-2.418-2.215s-1.606-1.727-2.778-0.945c-1.174,0.782-1.271,2.182-1.271,2.182
		l-0.565,2.086c0,0-0.445,2.019-2.563,2.313C45.435,14.028,42.438,13.735,42.438,13.735z"/>
	<path d="M54.558,7.024c0,0,1.042,3.095,1.855,3.453c0.815,0.358,3.007,1.303,3.246,0.554c0.241-0.75,0-0.959,0-0.959
		s0.693,1.023,0.271,1.447c-0.421,0.423-0.664,0.518-2.018,0.293c-1.354-0.224-3.603-0.75-3.603-0.75l-5.389,0.099
		c0,0,0.488-1.727,0.651-1.923c0.163-0.195,3.097-2.932,3.097-2.932L54.558,7.024z"/>
	<path fill="#ECCFC1" d="M40.245,61.26l0.781-5.338c0,0-0.781-5.387-0.781-5.604c0-0.217-0.783-3.518-0.783-3.691
		c0-0.174-0.607-3.27-0.607-3.27l-3.908,5.094c0,0-3.693,6.862-3.693,7.079s-0.434,6.776-0.391,6.907s0.955,8.426,0.955,8.426
		l2.086,1.651c0,0,2.172-1.173,2.302-1.26c0.13-0.087,1.521-1.868,1.651-2.085C37.986,68.952,40.245,61.26,40.245,61.26z"/>
	<path fill="#C9A896" d="M38.854,43.358c0,0-6.125,5.701-7.558,10.479s-1.347,7.601-0.913,9.989c0.436,2.39,0.957,6.994,1.391,8.036
		c0.435,1.042,2.955,3.215,3.476,2.563c0.521-0.653,2.91-3.954,3.388-5.908c0.478-1.954,1.391-5.125,1.607-5.907
		c0.217-0.781,0.564-4.474,0.564-4.474s-3.041,10.902-3.605,11.337c-0.564,0.434-4.82,2.954-5.212-1.824
		c-0.392-4.779-0.87-11.902,0.999-15.16C34.858,49.233,38.854,43.358,38.854,43.358z"/>
	<path fill="#C9A896" d="M31.601,68.648c0,0-0.874,7.602-0.741,9.773c0.133,2.173,1.394,8.73,1.61,10.208
		c0.217,1.477-0.086,2.779,0,3.127c0.087,0.347,0.738,1.911,0.869,1.955c0.13,0.044,1.52,0.651,2.346,0
		c0.824-0.652,1.259-2.433,1.259-2.433s0.305-9.17,0.349-9.949c0.043-0.78,0.173-6.34,0.173-6.34s1.258-6.996,0.911-6.342
		c-1.02,1.934-2.434,1.509-2.434,1.509v-5.048l-3.44,1.107L31.601,68.648z"/>
	<path fill="#C9A896" d="M33.208,92.32c0,0-0.26,3.911,0,5.082c0.261,1.175,0.81,2.303,1.404,2.998
		c0.594,0.694,1.332,1.087,1.332,1.087s1.089,1.216,2.434,0.738c1.346-0.479,1.259-0.652,0.737-0.958
		c-0.521-0.302-1.259-0.129-1.39-1.041c-0.131-0.911-0.174-2.171-0.174-2.171s1.043,2.91,1.65,2.91c0.608,0,1.043,0,0.869-0.913
		c-0.174-0.911-0.739-2.725-0.739-2.725s0.13-1.315-0.087-1.706s-1.554-2.212-1.997-3.041c-0.444-0.827-0.647-2.214-0.647-2.214
		L33.208,92.32z"/>
	<path fill="#ECCFC1" d="M31.275,68.648c0,0-0.875,7.602-0.741,9.773c0.133,2.173,1.393,8.73,1.609,10.208
		c0.217,1.477-0.086,2.779,0,3.127c0.087,0.347,0.738,1.911,0.869,1.955c0.13,0.044,1.521,0.651,2.345,0
		c0.825-0.652,1.261-2.433,1.261-2.433s0.304-9.17,0.348-9.949c0.043-0.78,0.174-6.34,0.174-6.34s1.256-6.996,0.912-6.342
		c-1.021,1.934-2.436,1.509-2.436,1.509v-5.048l-3.439,1.107L31.275,68.648z"/>
	<path fill="#ECCFC1" d="M32.882,92.32c0,0-0.26,3.911,0,5.082c0.261,1.175,0.811,2.303,1.404,2.998
		c0.594,0.694,1.332,1.087,1.332,1.087s1.09,1.216,2.435,0.738c1.345-0.479,1.259-0.652,0.737-0.958
		c-0.521-0.302-1.26-0.129-1.391-1.041c-0.131-0.911-0.174-2.171-0.174-2.171s1.043,2.91,1.65,2.91c0.608,0,1.043,0,0.869-0.913
		c-0.174-0.911-0.738-2.725-0.738-2.725s0.131-1.315-0.087-1.706c-0.217-0.391-1.554-2.212-1.998-3.041
		c-0.444-0.827-0.646-2.214-0.646-2.214L32.882,92.32z"/>
	<path fill="#BF2026" d="M62.519,51.969c0,0,8.972,4.203,7.83,10.962s-8.485,5.176-10.155,3.753
		c-1.671-1.423-4.622-3.508-4.061-9.851C56.698,50.493,62.519,51.969,62.519,51.969z"/>
	<path fill="#BF2026" d="M61.737,51.044c0,0,8.972,4.202,7.83,10.961c-1.141,6.761-8.485,5.177-10.157,3.753
		c-1.669-1.423-4.621-3.509-4.058-9.85C55.916,49.567,61.737,51.044,61.737,51.044z"/>
	<path fill="#9A1D26" d="M44.024,60.917c0,0-2.052,13.03,7.31,13.378c9.361,0.348,10.663-7.442,9.274-11.236
		c-1.39-3.793-4.576-5.881-6.197-6.705C52.789,55.531,44.024,60.917,44.024,60.917z"/>
	<path fill="#BF2026" d="M44.017,60.508c0,0-1.979,12.373,7.054,12.702c9.03,0.331,10.287-7.066,8.947-10.668
		c-1.342-3.601-4.415-5.583-5.979-6.366C52.475,55.394,44.017,60.508,44.017,60.508z"/>
	<path fill="#4891CE" d="M65.134,50.895c0,0-7.799-1.15-11.685-2.752C49.564,46.54,47.044,41,44.2,40.773
		c-2.845-0.227-6.508,2.075-7.412,3.334c-0.905,1.259-8.203,7.79-7.682,21.27c0.521,13.479,0.338,21.722-0.027,22.292
		c-0.363,0.569,2.305,6.016,5.236,5.465c2.933-0.553,8.163-1.152,10.664-3.416c2.5-2.261-3.161-12.99-3.953-17.203
		c-0.793-4.213,2.496-9.864,3.929-12.154c1.432-2.291,6.269-5.633,7.934-4.907c1.665,0.727,13.389-1.28,13.389-1.28L65.134,50.895z"
		/>
	<path fill="#4891CE" d="M42.397,42.033l0.782-1.736c0,0-2.069,0.444-3.804,2.399"/>
</g>
</svg>
